G04*
G04 #@! TF.GenerationSoftware,Altium Limited,Altium Designer,24.1.2 (44)*
G04*
G04 Layer_Physical_Order=4*
G04 Layer_Color=16711680*
%FSLAX44Y44*%
%MOMM*%
G71*
G04*
G04 #@! TF.SameCoordinates,2EF6C2FC-EFCF-4523-B91F-EB5A1425F999*
G04*
G04*
G04 #@! TF.FilePolarity,Positive*
G04*
G01*
G75*
%ADD11C,0.2000*%
%ADD13C,0.2540*%
%ADD65C,1.4000*%
%ADD66R,1.4000X1.4000*%
%ADD67R,1.5500X1.5500*%
%ADD68C,1.5500*%
%ADD69C,2.3000*%
%ADD72C,0.3500*%
%ADD73C,5.0000*%
%ADD75C,1.0000*%
%ADD79C,0.5000*%
%ADD81R,1.5000X1.5000*%
%ADD82C,1.5000*%
%ADD83R,2.5500X2.5500*%
%ADD84C,2.5500*%
%ADD85C,1.5080*%
%ADD86C,1.6000*%
G04:AMPARAMS|DCode=87|XSize=1.6mm|YSize=1.6mm|CornerRadius=0.4mm|HoleSize=0mm|Usage=FLASHONLY|Rotation=270.000|XOffset=0mm|YOffset=0mm|HoleType=Round|Shape=RoundedRectangle|*
%AMROUNDEDRECTD87*
21,1,1.6000,0.8000,0,0,270.0*
21,1,0.8000,1.6000,0,0,270.0*
1,1,0.8000,-0.4000,-0.4000*
1,1,0.8000,-0.4000,0.4000*
1,1,0.8000,0.4000,0.4000*
1,1,0.8000,0.4000,-0.4000*
%
%ADD87ROUNDEDRECTD87*%
%ADD88C,0.5000*%
%ADD89R,0.2540X0.2540*%
%ADD90R,0.2540X0.2794*%
G36*
X25000Y780000D02*
X955000Y780000D01*
X955000Y780000D01*
X955000Y780000D01*
X957462Y780000D01*
X962292Y779039D01*
X966842Y777155D01*
X970937Y774419D01*
X974419Y770937D01*
X977155Y766842D01*
X979039Y762292D01*
X980000Y757462D01*
X980000Y755000D01*
X980000Y25000D01*
X980000Y25000D01*
Y22538D01*
X979039Y17708D01*
X977155Y13158D01*
X974419Y9063D01*
X970937Y5581D01*
X966842Y2845D01*
X962292Y961D01*
X957462Y0D01*
X22537D01*
X17707Y961D01*
X13158Y2845D01*
X9063Y5581D01*
X5581Y9064D01*
X2845Y13158D01*
X961Y17708D01*
X-0Y22538D01*
X0Y25000D01*
Y95000D01*
Y97462D01*
X961Y102292D01*
X2845Y106842D01*
X5581Y110937D01*
X9063Y114419D01*
X13158Y117155D01*
X17708Y119039D01*
X22538Y120000D01*
X45000D01*
X47450Y120120D01*
X52257Y121076D01*
X56785Y122952D01*
X60860Y125675D01*
X64325Y129140D01*
X67048Y133215D01*
X68924Y137743D01*
X69880Y142549D01*
X70000Y145000D01*
X70000Y635000D01*
X70000Y635000D01*
X70000Y635000D01*
X69879Y637450D01*
X68923Y642257D01*
X67048Y646785D01*
X64325Y650860D01*
X60860Y654325D01*
X56785Y657048D01*
X52257Y658923D01*
X47450Y659880D01*
X45000Y660000D01*
X25000Y660000D01*
X25000Y660000D01*
X22538Y660000D01*
X17708Y660961D01*
X13158Y662845D01*
X9063Y665581D01*
X5581Y669063D01*
X2845Y673158D01*
X961Y677708D01*
X0Y682538D01*
Y685000D01*
Y755000D01*
X-0Y757462D01*
X961Y762292D01*
X2845Y766842D01*
X5581Y770937D01*
X9063Y774419D01*
X13158Y777155D01*
X17708Y779039D01*
X22538Y780000D01*
X25000Y780000D01*
D02*
G37*
%LPC*%
G36*
X855750Y724780D02*
X835170D01*
Y704200D01*
X855750D01*
Y724780D01*
D02*
G37*
G36*
X606830D02*
X586250D01*
Y704200D01*
X606830D01*
Y724780D01*
D02*
G37*
G36*
X507770D02*
X487190D01*
Y704200D01*
X507770D01*
Y724780D01*
D02*
G37*
G36*
X693420Y680519D02*
X679450D01*
X678069Y680245D01*
X676898Y679462D01*
X672875Y675439D01*
X471830D01*
X470449Y675165D01*
X469278Y674382D01*
X438505Y643609D01*
X358868D01*
X357487Y643335D01*
X356316Y642552D01*
X321191Y607428D01*
X321144Y607426D01*
X320938Y607378D01*
X320204D01*
X318351Y606611D01*
X316933Y605193D01*
X316166Y603340D01*
Y601335D01*
X316933Y599483D01*
X317888Y598528D01*
X316933Y597573D01*
X316166Y595720D01*
Y593716D01*
X316440Y593055D01*
X315734Y591999D01*
X314348D01*
X312861Y591703D01*
X311601Y590861D01*
X307253Y586513D01*
X306411Y585253D01*
X306115Y583766D01*
Y517548D01*
X305521Y517230D01*
X304263Y517998D01*
Y550522D01*
X303967Y552009D01*
X303125Y553269D01*
X284705Y571689D01*
Y602761D01*
X287509Y605565D01*
X296060D01*
X297547Y605861D01*
X298807Y606703D01*
X306427Y614323D01*
X307269Y615583D01*
X307565Y617070D01*
Y618633D01*
X307567Y618656D01*
X307699Y618787D01*
X308466Y620639D01*
Y622645D01*
X307699Y624497D01*
X306281Y625915D01*
X304429Y626682D01*
X302423D01*
X300571Y625915D01*
X299489Y624833D01*
X298407Y625915D01*
X296555Y626682D01*
X294550D01*
X292697Y625915D01*
X291279Y624497D01*
X290512Y622645D01*
Y620955D01*
X283360D01*
X281873Y620659D01*
X280613Y619817D01*
X270453Y609657D01*
X269611Y608397D01*
X269315Y606910D01*
Y566270D01*
X269611Y564784D01*
X270453Y563523D01*
X289485Y544491D01*
Y505364D01*
X289560Y504989D01*
Y503671D01*
X289512Y503428D01*
Y500634D01*
X289560Y500392D01*
Y500247D01*
X289485Y499872D01*
Y496690D01*
X289560Y496315D01*
Y496062D01*
X289610D01*
X289781Y495204D01*
X290623Y493943D01*
X291140Y493426D01*
Y492878D01*
X291907Y491025D01*
X293325Y489607D01*
X295177Y488840D01*
X297183D01*
X299035Y489607D01*
X300453Y491025D01*
X300907Y492123D01*
X302393Y492433D01*
X303223Y491604D01*
X304483Y490762D01*
X305970Y490466D01*
X307586D01*
X308445Y489607D01*
X310298Y488840D01*
X312302D01*
X314155Y489607D01*
X315573Y491025D01*
X316340Y492878D01*
Y494883D01*
X315573Y496735D01*
X314155Y498153D01*
X312302Y498920D01*
X310298D01*
X308669Y498245D01*
X308519Y498235D01*
X307579D01*
X304263Y501551D01*
Y506062D01*
X305533Y506910D01*
X306234Y506620D01*
X308239D01*
X310091Y507387D01*
X311509Y508805D01*
X312276Y510658D01*
Y511206D01*
X312747Y511677D01*
X313589Y512937D01*
X313885Y514424D01*
Y582157D01*
X315957Y584229D01*
X320571D01*
X320888Y584292D01*
X321206Y584229D01*
X326794D01*
X328281Y584525D01*
X329541Y585367D01*
X342234Y598060D01*
X342783D01*
X344635Y598827D01*
X346053Y600245D01*
X346820Y602098D01*
Y604103D01*
X346053Y605955D01*
X344635Y607373D01*
X342783Y608140D01*
X340778D01*
X338925Y607373D01*
X337507Y605955D01*
X336740Y604103D01*
Y603554D01*
X327516Y594330D01*
X326246Y594856D01*
Y595720D01*
X325479Y597573D01*
X324524Y598528D01*
X325479Y599483D01*
X326246Y601335D01*
Y602070D01*
X326294Y602276D01*
X326296Y602323D01*
X360363Y636391D01*
X440000D01*
X441381Y636665D01*
X442552Y637448D01*
X473325Y668221D01*
X674370D01*
X675751Y668495D01*
X676922Y669278D01*
X680945Y673301D01*
X691925D01*
X696177Y669049D01*
Y667765D01*
X696155Y667045D01*
X696135Y666809D01*
X696000Y666482D01*
Y664477D01*
X696767Y662625D01*
X698185Y661207D01*
X700038Y660440D01*
X702042D01*
X703895Y661207D01*
X705313Y662625D01*
X706080Y664477D01*
Y666482D01*
X705313Y668335D01*
X703895Y669753D01*
X703395Y669960D01*
Y670544D01*
X703120Y671925D01*
X702338Y673096D01*
X695972Y679462D01*
X694801Y680245D01*
X693420Y680519D01*
D02*
G37*
G36*
X474712Y664170D02*
X472707D01*
X470855Y663403D01*
X469437Y661985D01*
X468670Y660133D01*
Y658128D01*
X469437Y656275D01*
X470855Y654857D01*
X472707Y654090D01*
X474712D01*
X476565Y654857D01*
X476888Y655180D01*
X534692D01*
X535145Y654727D01*
X536997Y653960D01*
X539002D01*
X540855Y654727D01*
X542273Y656145D01*
X543040Y657998D01*
Y660003D01*
X542273Y661855D01*
X540855Y663273D01*
X539002Y664040D01*
X536997D01*
X535145Y663273D01*
X534822Y662950D01*
X477018D01*
X476565Y663403D01*
X474712Y664170D01*
D02*
G37*
G36*
X311003Y663040D02*
X308997D01*
X307145Y662273D01*
X305727Y660855D01*
X304960Y659003D01*
Y656998D01*
X305727Y655145D01*
X307145Y653727D01*
X308997Y652960D01*
X311003D01*
X312855Y653727D01*
X312964Y653837D01*
X312976Y653841D01*
X313029Y653857D01*
X313094Y653873D01*
X313140Y653881D01*
X313237Y653891D01*
X360982D01*
X362145Y652727D01*
X363997Y651960D01*
X366003D01*
X367855Y652727D01*
X369273Y654145D01*
X370040Y655997D01*
Y658002D01*
X369273Y659855D01*
X367855Y661273D01*
X366003Y662040D01*
X363997D01*
X362145Y661273D01*
X362036Y661163D01*
X362024Y661159D01*
X361971Y661143D01*
X361906Y661127D01*
X361860Y661119D01*
X361763Y661109D01*
X314018D01*
X312855Y662273D01*
X311003Y663040D01*
D02*
G37*
G36*
X104527Y659040D02*
X101873D01*
X99309Y658353D01*
X97011Y657026D01*
X95134Y655149D01*
X93807Y652851D01*
X93120Y650287D01*
Y647633D01*
X93807Y645069D01*
X95134Y642771D01*
X97011Y640894D01*
X99309Y639567D01*
X101873Y638880D01*
X104527D01*
X107091Y639567D01*
X109389Y640894D01*
X111266Y642771D01*
X112593Y645069D01*
X113280Y647633D01*
Y650287D01*
X112593Y652851D01*
X111266Y655149D01*
X109389Y657026D01*
X107091Y658353D01*
X104527Y659040D01*
D02*
G37*
G36*
X849000Y635596D02*
X841000D01*
X839293Y635372D01*
X837702Y634713D01*
X836336Y633664D01*
X835287Y632298D01*
X834628Y630707D01*
X834404Y629000D01*
Y621000D01*
X834628Y619293D01*
X835175Y617974D01*
X834721Y617021D01*
X834477Y616729D01*
X833626Y616629D01*
X832828Y617427D01*
X831568Y618269D01*
X830081Y618565D01*
X753813D01*
X753425Y618953D01*
X751572Y619720D01*
X749567D01*
X747715Y618953D01*
X746297Y617535D01*
X745530Y615682D01*
Y613677D01*
X746297Y611825D01*
X747715Y610407D01*
X749567Y609640D01*
X751572D01*
X753425Y610407D01*
X753813Y610795D01*
X828472D01*
X829621Y609647D01*
X830881Y608805D01*
X832367Y608509D01*
X837207D01*
X837734Y607239D01*
X836566Y606072D01*
X835178Y603668D01*
X834460Y600988D01*
Y598212D01*
X835178Y595532D01*
X836566Y593128D01*
X838528Y591166D01*
X840932Y589778D01*
X843612Y589060D01*
X846388D01*
X849068Y589778D01*
X851472Y591166D01*
X853434Y593128D01*
X854822Y595532D01*
X855540Y598212D01*
Y600988D01*
X854822Y603668D01*
X853434Y606072D01*
X852266Y607239D01*
X852793Y608509D01*
X857794D01*
X859281Y608805D01*
X860541Y609647D01*
X864308Y613415D01*
X864527Y613555D01*
X864865Y613719D01*
X865318Y613884D01*
X865884Y614039D01*
X866561Y614174D01*
X867315Y614279D01*
X869241Y614403D01*
X870337Y614411D01*
X870577Y614460D01*
X871788D01*
X874468Y615178D01*
X876872Y616566D01*
X878834Y618528D01*
X880222Y620932D01*
X880940Y623612D01*
Y626388D01*
X880222Y629068D01*
X878834Y631472D01*
X876872Y633434D01*
X874468Y634822D01*
X871788Y635540D01*
X869012D01*
X866332Y634822D01*
X863928Y633434D01*
X861966Y631472D01*
X860578Y629068D01*
X859860Y626388D01*
Y625177D01*
X859811Y624937D01*
X859803Y623841D01*
X859679Y621915D01*
X859574Y621161D01*
X859439Y620484D01*
X859284Y619918D01*
X859119Y619465D01*
X858954Y619127D01*
X858815Y618908D01*
X856384Y616478D01*
X855286Y616592D01*
X855087Y616978D01*
X854730Y617744D01*
X855372Y619293D01*
X855596Y621000D01*
Y629000D01*
X855372Y630707D01*
X854713Y632298D01*
X853664Y633664D01*
X852298Y634713D01*
X850707Y635372D01*
X849000Y635596D01*
D02*
G37*
G36*
X871788Y610140D02*
X869012D01*
X866332Y609422D01*
X863928Y608034D01*
X861966Y606072D01*
X860578Y603668D01*
X859860Y600988D01*
Y598212D01*
X860578Y595532D01*
X861966Y593128D01*
X863928Y591166D01*
X866332Y589778D01*
X869012Y589060D01*
X871788D01*
X874468Y589778D01*
X876872Y591166D01*
X878834Y593128D01*
X880222Y595532D01*
X880940Y598212D01*
Y600988D01*
X880222Y603668D01*
X878834Y606072D01*
X876872Y608034D01*
X874468Y609422D01*
X871788Y610140D01*
D02*
G37*
G36*
X793483Y600670D02*
X791478D01*
X789625Y599903D01*
X788207Y598485D01*
X787440Y596632D01*
Y596084D01*
X761661Y570305D01*
X744923D01*
X744535Y570693D01*
X742682Y571460D01*
X740677D01*
X738825Y570693D01*
X737407Y569275D01*
X736640Y567422D01*
Y565418D01*
X737407Y563565D01*
X738825Y562147D01*
X740677Y561380D01*
X742682D01*
X744535Y562147D01*
X744923Y562535D01*
X763270D01*
X764757Y562831D01*
X766017Y563673D01*
X792934Y590590D01*
X793483D01*
X795335Y591357D01*
X796753Y592775D01*
X797520Y594627D01*
Y596632D01*
X796753Y598485D01*
X795335Y599903D01*
X793483Y600670D01*
D02*
G37*
G36*
X218490Y584250D02*
X187910D01*
Y553670D01*
X218490D01*
Y584250D01*
D02*
G37*
G36*
X622794Y556982D02*
X620789D01*
X618937Y556215D01*
X617519Y554797D01*
X616752Y552944D01*
Y552881D01*
X616736Y552852D01*
X616695Y552788D01*
X616663Y552742D01*
X616600Y552666D01*
X615167Y551233D01*
X564111D01*
X564047Y551282D01*
X563179Y552151D01*
X561326Y552918D01*
X559322D01*
X557469Y552151D01*
X556051Y550733D01*
X555284Y548881D01*
Y546875D01*
X556051Y545023D01*
X557469Y543605D01*
X559322Y542838D01*
X561326D01*
X563179Y543605D01*
X563452Y543878D01*
X563500Y543902D01*
X563585Y543967D01*
X563591Y543971D01*
X563600Y543976D01*
X563615Y543983D01*
X563639Y543992D01*
X563676Y544002D01*
X563728Y544013D01*
X563737Y544015D01*
X616662D01*
X618043Y544289D01*
X619214Y545072D01*
X621045Y546902D01*
X622549D01*
X622554Y546899D01*
X623016Y546218D01*
X623174Y545729D01*
X615055Y537609D01*
X583589D01*
X583554Y537641D01*
X583375Y537753D01*
X582855Y538273D01*
X581003Y539040D01*
X578997D01*
X577145Y538273D01*
X575727Y536855D01*
X574960Y535003D01*
Y532998D01*
X575727Y531145D01*
X577145Y529727D01*
X578997Y528960D01*
X581003D01*
X582855Y529727D01*
X583375Y530247D01*
X583554Y530359D01*
X583589Y530391D01*
X616550D01*
X617931Y530665D01*
X619102Y531448D01*
X628665Y541010D01*
X628712Y541012D01*
X628918Y541060D01*
X629652D01*
X631505Y541827D01*
X632923Y543245D01*
X633690Y545098D01*
Y547103D01*
X632923Y548955D01*
X631505Y550373D01*
X629652Y551140D01*
X627648D01*
X626832Y552177D01*
Y552944D01*
X626065Y554797D01*
X624647Y556215D01*
X622794Y556982D01*
D02*
G37*
G36*
X498003Y564040D02*
X495998D01*
X494145Y563273D01*
X492727Y561855D01*
X491960Y560003D01*
Y557998D01*
X492727Y556145D01*
X494145Y554727D01*
X495998Y553960D01*
X496732D01*
X496938Y553912D01*
X496985Y553910D01*
X530448Y520448D01*
X531619Y519665D01*
X533000Y519391D01*
X628000D01*
X629381Y519665D01*
X630552Y520448D01*
X652645Y542541D01*
X663261D01*
X663296Y542509D01*
X663475Y542397D01*
X663995Y541877D01*
X665847Y541110D01*
X667852D01*
X669705Y541877D01*
X671123Y543295D01*
X671890Y545148D01*
Y547152D01*
X671123Y549005D01*
X669705Y550423D01*
X667852Y551190D01*
X665847D01*
X663995Y550423D01*
X663475Y549903D01*
X663296Y549791D01*
X663261Y549759D01*
X651150D01*
X649769Y549485D01*
X648598Y548702D01*
X626505Y526609D01*
X534495D01*
X502090Y559015D01*
X502088Y559062D01*
X502040Y559268D01*
Y560003D01*
X501273Y561855D01*
X499855Y563273D01*
X498003Y564040D01*
D02*
G37*
G36*
X871788Y559340D02*
X869012D01*
X866332Y558622D01*
X863928Y557234D01*
X861966Y555272D01*
X860578Y552868D01*
X859860Y550188D01*
Y547412D01*
X860578Y544732D01*
X861966Y542328D01*
X863928Y540366D01*
X866332Y538978D01*
X869012Y538260D01*
X871788D01*
X874468Y538978D01*
X876872Y540366D01*
X878834Y542328D01*
X880222Y544732D01*
X880940Y547412D01*
Y550188D01*
X880222Y552868D01*
X878834Y555272D01*
X876872Y557234D01*
X874468Y558622D01*
X871788Y559340D01*
D02*
G37*
G36*
X846388D02*
X843612D01*
X840932Y558622D01*
X838528Y557234D01*
X836566Y555272D01*
X835178Y552868D01*
X834460Y550188D01*
Y547412D01*
X835178Y544732D01*
X836566Y542328D01*
X838528Y540366D01*
X840932Y538978D01*
X843612Y538260D01*
X846388D01*
X849068Y538978D01*
X851472Y540366D01*
X853434Y542328D01*
X854822Y544732D01*
X855540Y547412D01*
Y550188D01*
X854822Y552868D01*
X853434Y555272D01*
X851472Y557234D01*
X849068Y558622D01*
X846388Y559340D01*
D02*
G37*
G36*
X104527Y549040D02*
X101873D01*
X99309Y548353D01*
X97011Y547026D01*
X95134Y545149D01*
X93807Y542851D01*
X93120Y540287D01*
Y537633D01*
X93807Y535069D01*
X95134Y532771D01*
X97011Y530894D01*
X99309Y529567D01*
X101873Y528880D01*
X104527D01*
X107091Y529567D01*
X109389Y530894D01*
X111266Y532771D01*
X112593Y535069D01*
X113280Y537633D01*
Y540287D01*
X112593Y542851D01*
X111266Y545149D01*
X109389Y547026D01*
X107091Y548353D01*
X104527Y549040D01*
D02*
G37*
G36*
X871788Y533940D02*
X869012D01*
X866332Y533222D01*
X863928Y531834D01*
X861966Y529872D01*
X860578Y527468D01*
X859860Y524788D01*
Y522012D01*
X860578Y519332D01*
X861966Y516928D01*
X863928Y514966D01*
X866332Y513578D01*
X869012Y512860D01*
X871788D01*
X874468Y513578D01*
X876872Y514966D01*
X878834Y516928D01*
X880222Y519332D01*
X880940Y522012D01*
Y524788D01*
X880222Y527468D01*
X878834Y529872D01*
X876872Y531834D01*
X874468Y533222D01*
X871788Y533940D01*
D02*
G37*
G36*
X846388D02*
X843612D01*
X840932Y533222D01*
X838528Y531834D01*
X836566Y529872D01*
X835178Y527468D01*
X834460Y524788D01*
Y522012D01*
X835178Y519332D01*
X836566Y516928D01*
X838528Y514966D01*
X840932Y513578D01*
X843612Y512860D01*
X846388D01*
X849068Y513578D01*
X851472Y514966D01*
X853434Y516928D01*
X854822Y519332D01*
X855540Y522012D01*
Y524788D01*
X854822Y527468D01*
X853434Y529872D01*
X851472Y531834D01*
X849068Y533222D01*
X846388Y533940D01*
D02*
G37*
G36*
X104527Y523010D02*
X101873D01*
X99309Y522323D01*
X97011Y520996D01*
X95134Y519119D01*
X93807Y516821D01*
X93120Y514257D01*
Y511603D01*
X93807Y509039D01*
X95134Y506741D01*
X97011Y504864D01*
X99309Y503537D01*
X101873Y502850D01*
X104527D01*
X107091Y503537D01*
X109389Y504864D01*
X111266Y506741D01*
X112593Y509039D01*
X113280Y511603D01*
Y514257D01*
X112593Y516821D01*
X111266Y519119D01*
X109389Y520996D01*
X107091Y522323D01*
X104527Y523010D01*
D02*
G37*
G36*
X528003Y642040D02*
X525998D01*
X524145Y641273D01*
X522727Y639855D01*
X521960Y638003D01*
Y635998D01*
X522727Y634145D01*
X524145Y632727D01*
X525998Y631960D01*
X528003D01*
X529855Y632727D01*
X530243Y633115D01*
X602181D01*
X630792Y604504D01*
X631853Y603372D01*
X632440Y602664D01*
X632500Y602581D01*
Y602248D01*
X632694Y601780D01*
X632792Y601283D01*
X633074Y600863D01*
X633267Y600395D01*
X633625Y600037D01*
X633906Y599616D01*
X674103Y559420D01*
Y499711D01*
X672929Y499225D01*
X656711Y515444D01*
X655044Y516558D01*
X653077Y516949D01*
X650223D01*
X650003Y517040D01*
X647998D01*
X647777Y516949D01*
X595630D01*
X595134Y516850D01*
X594627D01*
X594160Y516656D01*
X593663Y516558D01*
X593243Y516276D01*
X592775Y516083D01*
X592417Y515725D01*
X591996Y515444D01*
X591715Y515023D01*
X591357Y514665D01*
X591164Y514197D01*
X590882Y513777D01*
X590784Y513280D01*
X590590Y512812D01*
Y512306D01*
X590491Y511810D01*
X590590Y511314D01*
Y510807D01*
X590784Y510340D01*
X590882Y509843D01*
X591164Y509423D01*
X591357Y508955D01*
X591715Y508597D01*
X591996Y508176D01*
X592417Y507895D01*
X592775Y507537D01*
X593243Y507344D01*
X593663Y507062D01*
X594160Y506964D01*
X594627Y506770D01*
X595134D01*
X595630Y506671D01*
X650949D01*
X667559Y490061D01*
X669809Y487651D01*
X671083Y486107D01*
X671460Y485582D01*
X671636Y485292D01*
Y433279D01*
X671896Y431310D01*
X672655Y429476D01*
X673864Y427901D01*
X689625Y412140D01*
Y272390D01*
X638512Y221278D01*
X638512Y221278D01*
X632162Y214928D01*
X630954Y213353D01*
X630194Y211518D01*
X629935Y209550D01*
X630194Y207582D01*
X630954Y205748D01*
X632162Y204172D01*
X633737Y202964D01*
X635572Y202204D01*
X637540Y201945D01*
X639508Y202204D01*
X641342Y202964D01*
X642918Y204172D01*
X649268Y210522D01*
X649268Y210522D01*
X702608Y263862D01*
X703816Y265438D01*
X704576Y267272D01*
X704835Y269240D01*
Y415290D01*
X704576Y417258D01*
X703816Y419092D01*
X702608Y420668D01*
X686846Y436429D01*
Y485646D01*
X686807Y485945D01*
X690884Y490021D01*
X750354D01*
X750850Y490120D01*
X751356D01*
X751824Y490314D01*
X752320Y490412D01*
X752741Y490694D01*
X753209Y490887D01*
X753567Y491245D01*
X753987Y491526D01*
X754268Y491947D01*
X754626Y492305D01*
X754820Y492773D01*
X755101Y493194D01*
X755200Y493690D01*
X755394Y494157D01*
Y494664D01*
X755492Y495160D01*
X755394Y495656D01*
Y496162D01*
X755200Y496630D01*
X755101Y497127D01*
X754820Y497547D01*
X754626Y498015D01*
X754268Y498373D01*
X753987Y498794D01*
X753567Y499075D01*
X753209Y499433D01*
X752741Y499626D01*
X752320Y499908D01*
X751824Y500006D01*
X751356Y500200D01*
X750850D01*
X750354Y500299D01*
X702821D01*
X702335Y501472D01*
X732614Y531751D01*
X733728Y533418D01*
X734119Y535385D01*
Y582071D01*
X748888Y596841D01*
X767080D01*
X767576Y596940D01*
X768083D01*
X768550Y597134D01*
X769046Y597232D01*
X769467Y597514D01*
X769935Y597707D01*
X770293Y598065D01*
X770714Y598346D01*
X770995Y598767D01*
X771353Y599125D01*
X771546Y599593D01*
X771828Y600014D01*
X771926Y600510D01*
X772120Y600978D01*
Y601484D01*
X772219Y601980D01*
X772120Y602476D01*
Y602982D01*
X771926Y603450D01*
X771828Y603946D01*
X771546Y604367D01*
X771353Y604835D01*
X770995Y605193D01*
X770714Y605614D01*
X770293Y605895D01*
X769935Y606253D01*
X769467Y606446D01*
X769046Y606728D01*
X768550Y606826D01*
X768083Y607020D01*
X767576D01*
X767080Y607119D01*
X746760D01*
X744793Y606728D01*
X743126Y605614D01*
X725346Y587834D01*
X724232Y586166D01*
X723841Y584200D01*
Y537513D01*
X685650Y499322D01*
X684380Y499848D01*
Y561549D01*
X683989Y563515D01*
X682875Y565182D01*
X643177Y604880D01*
X666214Y627916D01*
X666495Y628337D01*
X666853Y628695D01*
X667046Y629163D01*
X667328Y629584D01*
X667426Y630080D01*
X667620Y630547D01*
Y631054D01*
X667719Y631550D01*
X667620Y632046D01*
Y632552D01*
X667426Y633020D01*
X667328Y633517D01*
X667046Y633937D01*
X666853Y634405D01*
X666495Y634763D01*
X666214Y635184D01*
X665793Y635465D01*
X665435Y635823D01*
X664967Y636016D01*
X664547Y636298D01*
X664050Y636396D01*
X663583Y636590D01*
X663076D01*
X662580Y636689D01*
X662084Y636590D01*
X661578D01*
X661110Y636396D01*
X660613Y636298D01*
X660193Y636016D01*
X659725Y635823D01*
X659367Y635465D01*
X658946Y635184D01*
X635023Y611260D01*
X606537Y639747D01*
X605277Y640589D01*
X603790Y640885D01*
X530243D01*
X529855Y641273D01*
X528003Y642040D01*
D02*
G37*
G36*
X218490Y448220D02*
X187910D01*
Y417640D01*
X218490D01*
Y448220D01*
D02*
G37*
G36*
X830356Y421770D02*
X827844D01*
X825418Y421120D01*
X823242Y419864D01*
X821466Y418088D01*
X820210Y415912D01*
X819560Y413486D01*
Y410974D01*
X820210Y408548D01*
X821466Y406372D01*
X823242Y404596D01*
X825418Y403340D01*
X827844Y402690D01*
X830356D01*
X832782Y403340D01*
X834958Y404596D01*
X836734Y406372D01*
X837990Y408548D01*
X838640Y410974D01*
Y413486D01*
X837990Y415912D01*
X836734Y418088D01*
X834958Y419864D01*
X832782Y421120D01*
X830356Y421770D01*
D02*
G37*
G36*
X459272Y564040D02*
X457267D01*
X455415Y563273D01*
X453997Y561855D01*
X453230Y560003D01*
Y557998D01*
X453997Y556145D01*
X454517Y555625D01*
X454629Y555446D01*
X454661Y555411D01*
Y516915D01*
X358128Y420382D01*
X357345Y419211D01*
X357071Y417830D01*
Y411259D01*
X357039Y411224D01*
X356927Y411045D01*
X356407Y410525D01*
X355640Y408672D01*
Y406668D01*
X356407Y404815D01*
X357825Y403397D01*
X359678Y402630D01*
X361683D01*
X363535Y403397D01*
X364953Y404815D01*
X365720Y406668D01*
Y408672D01*
X364953Y410525D01*
X364433Y411045D01*
X364321Y411224D01*
X364289Y411259D01*
Y416335D01*
X460822Y512868D01*
X461605Y514039D01*
X461879Y515420D01*
Y555411D01*
X461911Y555446D01*
X462023Y555625D01*
X462543Y556145D01*
X463310Y557998D01*
Y560003D01*
X462543Y561855D01*
X461125Y563273D01*
X459272Y564040D01*
D02*
G37*
G36*
X688073Y670520D02*
X686068D01*
X684215Y669753D01*
X682797Y668335D01*
X682030Y666482D01*
Y665748D01*
X681982Y665542D01*
X681980Y665495D01*
X669065Y652579D01*
X506730D01*
X505349Y652305D01*
X504178Y651522D01*
X479948Y627292D01*
X479165Y626121D01*
X478891Y624740D01*
Y513205D01*
X366295Y400609D01*
X333000D01*
X333000Y400609D01*
X331619Y400335D01*
X330448Y399552D01*
X324448Y393552D01*
X323665Y392381D01*
X323391Y391000D01*
Y337847D01*
X321191Y335648D01*
X321144Y335646D01*
X320938Y335598D01*
X320204D01*
X318351Y334831D01*
X316933Y333413D01*
X316166Y331561D01*
Y329556D01*
X316933Y327703D01*
X317888Y326748D01*
X316933Y325793D01*
X316166Y323941D01*
Y321936D01*
X316440Y321275D01*
X315734Y320219D01*
X314348D01*
X312861Y319923D01*
X311601Y319081D01*
X307253Y314733D01*
X306411Y313473D01*
X306115Y311986D01*
Y245768D01*
X305521Y245450D01*
X304263Y246218D01*
Y278742D01*
X303967Y280229D01*
X303125Y281489D01*
X284705Y299909D01*
Y330981D01*
X287509Y333785D01*
X296060D01*
X297547Y334081D01*
X298807Y334923D01*
X306427Y342543D01*
X307269Y343803D01*
X307565Y345290D01*
Y346853D01*
X307567Y346875D01*
X307699Y347007D01*
X308466Y348859D01*
Y350864D01*
X307699Y352717D01*
X306281Y354135D01*
X304429Y354902D01*
X302423D01*
X300571Y354135D01*
X299489Y353053D01*
X298407Y354135D01*
X296555Y354902D01*
X294550D01*
X292697Y354135D01*
X291279Y352717D01*
X290512Y350864D01*
Y350316D01*
X289371Y349175D01*
X283360D01*
X281873Y348879D01*
X280613Y348037D01*
X270453Y337877D01*
X269611Y336617D01*
X269315Y335130D01*
Y294490D01*
X269611Y293004D01*
X270453Y291743D01*
X289485Y272711D01*
Y233584D01*
X289560Y233209D01*
Y231891D01*
X289512Y231648D01*
Y228854D01*
X289560Y228612D01*
Y228467D01*
X289485Y228092D01*
Y224910D01*
X289560Y224535D01*
Y224282D01*
X289610D01*
X289781Y223424D01*
X290623Y222163D01*
X291140Y221646D01*
Y221098D01*
X291907Y219245D01*
X293325Y217827D01*
X295177Y217060D01*
X297183D01*
X299035Y217827D01*
X300453Y219245D01*
X300907Y220343D01*
X302393Y220653D01*
X303223Y219824D01*
X304483Y218982D01*
X305970Y218686D01*
X307586D01*
X308445Y217827D01*
X310298Y217060D01*
X312302D01*
X314155Y217827D01*
X315573Y219245D01*
X316340Y221098D01*
Y223102D01*
X315573Y224955D01*
X314155Y226373D01*
X312302Y227140D01*
X310298D01*
X308669Y226465D01*
X308519Y226455D01*
X307579D01*
X304263Y229771D01*
Y234282D01*
X305533Y235130D01*
X306234Y234840D01*
X308239D01*
X310091Y235607D01*
X311509Y237025D01*
X312276Y238878D01*
Y240092D01*
X312747Y240563D01*
X313589Y241823D01*
X313885Y243310D01*
Y310377D01*
X315957Y312449D01*
X320571D01*
X320888Y312512D01*
X321206Y312449D01*
X326794D01*
X328281Y312745D01*
X329541Y313587D01*
X342234Y326280D01*
X342783D01*
X344635Y327047D01*
X346053Y328465D01*
X346820Y330317D01*
Y332323D01*
X346053Y334175D01*
X344635Y335593D01*
X342783Y336360D01*
X340778D01*
X338925Y335593D01*
X337507Y334175D01*
X336740Y332323D01*
Y331774D01*
X327516Y322550D01*
X326246Y323076D01*
Y323941D01*
X325479Y325793D01*
X324524Y326748D01*
X325479Y327703D01*
X326246Y329556D01*
Y330290D01*
X326294Y330496D01*
X326296Y330543D01*
X329552Y333800D01*
X330335Y334971D01*
X330609Y336352D01*
Y386604D01*
X331163Y386872D01*
X331879Y386993D01*
X333145Y385727D01*
X334997Y384960D01*
X337002D01*
X338855Y385727D01*
X339243Y386115D01*
X390000D01*
X391487Y386411D01*
X392747Y387253D01*
X519884Y514390D01*
X520433D01*
X522285Y515157D01*
X523703Y516575D01*
X524470Y518428D01*
Y520433D01*
X523703Y522285D01*
X522285Y523703D01*
X520433Y524470D01*
X518428D01*
X516575Y523703D01*
X515157Y522285D01*
X514390Y520433D01*
Y519884D01*
X388391Y393885D01*
X371575D01*
X371049Y395155D01*
X485052Y509158D01*
X485835Y510329D01*
X486109Y511710D01*
Y623245D01*
X508225Y645361D01*
X670560D01*
X671941Y645635D01*
X673112Y646418D01*
X687085Y660390D01*
X687132Y660392D01*
X687338Y660440D01*
X688073D01*
X689925Y661207D01*
X691343Y662625D01*
X692110Y664477D01*
Y666482D01*
X691343Y668335D01*
X689925Y669753D01*
X688073Y670520D01*
D02*
G37*
G36*
X104527Y413010D02*
X101873D01*
X99309Y412323D01*
X97011Y410996D01*
X95134Y409119D01*
X93807Y406821D01*
X93120Y404257D01*
Y401603D01*
X93807Y399039D01*
X95134Y396741D01*
X97011Y394864D01*
X99309Y393537D01*
X101873Y392850D01*
X104527D01*
X107091Y393537D01*
X109389Y394864D01*
X111266Y396741D01*
X112593Y399039D01*
X113280Y401603D01*
Y404257D01*
X112593Y406821D01*
X111266Y409119D01*
X109389Y410996D01*
X107091Y412323D01*
X104527Y413010D01*
D02*
G37*
G36*
X830356Y396770D02*
X827844D01*
X825418Y396120D01*
X823242Y394864D01*
X821466Y393088D01*
X820210Y390912D01*
X819560Y388486D01*
Y385974D01*
X820210Y383548D01*
X821466Y381372D01*
X823242Y379596D01*
X825418Y378340D01*
X827844Y377690D01*
X830356D01*
X832782Y378340D01*
X834958Y379596D01*
X836734Y381372D01*
X837990Y383548D01*
X838640Y385974D01*
Y388486D01*
X837990Y390912D01*
X836734Y393088D01*
X834958Y394864D01*
X832782Y396120D01*
X830356Y396770D01*
D02*
G37*
G36*
X104527Y387256D02*
X101873D01*
X99309Y386569D01*
X97011Y385242D01*
X95134Y383365D01*
X93807Y381067D01*
X93120Y378503D01*
Y375849D01*
X93807Y373285D01*
X95134Y370987D01*
X97011Y369110D01*
X99309Y367783D01*
X101873Y367096D01*
X104527D01*
X107091Y367783D01*
X109389Y369110D01*
X111266Y370987D01*
X112593Y373285D01*
X113280Y375849D01*
Y378503D01*
X112593Y381067D01*
X111266Y383365D01*
X109389Y385242D01*
X107091Y386569D01*
X104527Y387256D01*
D02*
G37*
G36*
X830356Y371770D02*
X827844D01*
X825418Y371120D01*
X823242Y369864D01*
X821466Y368088D01*
X820210Y365912D01*
X819560Y363486D01*
Y360974D01*
X820210Y358548D01*
X821466Y356372D01*
X823242Y354596D01*
X825418Y353340D01*
X827844Y352690D01*
X830356D01*
X832782Y353340D01*
X834958Y354596D01*
X836734Y356372D01*
X837990Y358548D01*
X838640Y360974D01*
Y363486D01*
X837990Y365912D01*
X836734Y368088D01*
X834958Y369864D01*
X832782Y371120D01*
X830356Y371770D01*
D02*
G37*
G36*
Y346770D02*
X827844D01*
X825418Y346120D01*
X823242Y344864D01*
X821466Y343088D01*
X820210Y340912D01*
X819560Y338486D01*
Y335974D01*
X820210Y333548D01*
X821466Y331372D01*
X823242Y329596D01*
X825418Y328340D01*
X827844Y327690D01*
X830356D01*
X832782Y328340D01*
X834958Y329596D01*
X836734Y331372D01*
X837990Y333548D01*
X838640Y335974D01*
Y338486D01*
X837990Y340912D01*
X836734Y343088D01*
X834958Y344864D01*
X832782Y346120D01*
X830356Y346770D01*
D02*
G37*
G36*
X669023Y314920D02*
X667018D01*
X665165Y314153D01*
X663747Y312735D01*
X663627Y312445D01*
X662253D01*
X662133Y312735D01*
X660715Y314153D01*
X658863Y314920D01*
X656858D01*
X655005Y314153D01*
X653587Y312735D01*
X652820Y310882D01*
Y308878D01*
X653587Y307025D01*
X655005Y305607D01*
X656791Y304868D01*
Y279625D01*
X637315Y260149D01*
X472440D01*
X471059Y259875D01*
X469888Y259092D01*
X429448Y218652D01*
X428665Y217481D01*
X428391Y216100D01*
Y211589D01*
X428359Y211554D01*
X428247Y211374D01*
X427727Y210855D01*
X426960Y209002D01*
Y206998D01*
X427727Y205145D01*
X429145Y203727D01*
X430998Y202960D01*
X433003D01*
X434855Y203727D01*
X436273Y205145D01*
X437040Y206998D01*
Y209002D01*
X436273Y210855D01*
X435753Y211374D01*
X435641Y211554D01*
X435609Y211589D01*
Y213344D01*
X435690Y213398D01*
X436209Y213234D01*
X437050Y212780D01*
X437727Y211145D01*
X439145Y209727D01*
X440998Y208960D01*
X443003D01*
X444855Y209727D01*
X446273Y211145D01*
X447040Y212997D01*
Y215002D01*
X446412Y216518D01*
X447712Y217818D01*
X448789Y217099D01*
X448602Y216649D01*
Y214643D01*
X449370Y212791D01*
X450788Y211373D01*
X452640Y210606D01*
X454645D01*
X456497Y211373D01*
X457915Y212791D01*
X458683Y214643D01*
Y216649D01*
X457915Y218501D01*
X457600Y218816D01*
X481555Y242771D01*
X492878D01*
X494361Y241288D01*
X495532Y240505D01*
X496913Y240231D01*
X645160D01*
X646541Y240505D01*
X647712Y241288D01*
X678192Y271768D01*
X678975Y272939D01*
X679249Y274320D01*
Y280445D01*
X679465Y280660D01*
X679512Y280662D01*
X679718Y280710D01*
X680452D01*
X682305Y281477D01*
X683723Y282895D01*
X684490Y284748D01*
Y286752D01*
X683723Y288605D01*
X682305Y290023D01*
X680452Y290790D01*
X678447D01*
X676595Y290023D01*
X675177Y288605D01*
X674410Y286752D01*
Y286018D01*
X674362Y285812D01*
X674360Y285765D01*
X673088Y284492D01*
X672899Y284210D01*
X671629Y284595D01*
Y306291D01*
X671661Y306326D01*
X671773Y306506D01*
X672293Y307025D01*
X673060Y308878D01*
Y310882D01*
X672293Y312735D01*
X670875Y314153D01*
X669023Y314920D01*
D02*
G37*
G36*
X580390Y397560D02*
X432470D01*
X431479Y397363D01*
X430639Y396801D01*
X380669Y346831D01*
X380107Y345991D01*
X379910Y345000D01*
Y305000D01*
X380107Y304009D01*
X380669Y303169D01*
X383169Y300669D01*
X384009Y300107D01*
X385000Y299910D01*
X405000D01*
X405991Y300107D01*
X406831Y300669D01*
X409331Y303169D01*
X409893Y304009D01*
X410090Y305000D01*
Y323927D01*
X449333Y363170D01*
X585470D01*
X586461Y363367D01*
X587301Y363929D01*
X589841Y366469D01*
X590403Y367309D01*
X590600Y368300D01*
X590600Y387350D01*
X590403Y388341D01*
X589841Y389181D01*
X582221Y396801D01*
X581381Y397363D01*
X580390Y397560D01*
D02*
G37*
G36*
X218490Y312466D02*
X187910D01*
Y281886D01*
X218490D01*
Y312466D01*
D02*
G37*
G36*
X104527Y277256D02*
X101873D01*
X99309Y276569D01*
X97011Y275242D01*
X95134Y273365D01*
X93807Y271067D01*
X93120Y268503D01*
Y265849D01*
X93807Y263285D01*
X95134Y260987D01*
X97011Y259110D01*
X99309Y257783D01*
X101873Y257096D01*
X104527D01*
X107091Y257783D01*
X109389Y259110D01*
X111266Y260987D01*
X112593Y263285D01*
X113280Y265849D01*
Y268503D01*
X112593Y271067D01*
X111266Y273365D01*
X109389Y275242D01*
X107091Y276569D01*
X104527Y277256D01*
D02*
G37*
G36*
Y251230D02*
X101873D01*
X99309Y250543D01*
X97011Y249216D01*
X95134Y247339D01*
X93807Y245041D01*
X93120Y242477D01*
Y239823D01*
X93807Y237259D01*
X95134Y234961D01*
X97011Y233084D01*
X99309Y231757D01*
X101873Y231070D01*
X104527D01*
X107091Y231757D01*
X109389Y233084D01*
X111266Y234961D01*
X112593Y237259D01*
X113280Y239823D01*
Y242477D01*
X112593Y245041D01*
X111266Y247339D01*
X109389Y249216D01*
X107091Y250543D01*
X104527Y251230D01*
D02*
G37*
G36*
X716012Y476210D02*
X714007D01*
X712155Y475443D01*
X710737Y474025D01*
X709970Y472173D01*
Y470168D01*
X710737Y468315D01*
X712155Y466897D01*
X714007Y466130D01*
X716012D01*
X717865Y466897D01*
X718384Y467417D01*
X718564Y467529D01*
X718599Y467561D01*
X740185D01*
X786331Y421415D01*
Y306070D01*
X786605Y304689D01*
X787388Y303518D01*
X822071Y268835D01*
Y218198D01*
X820727Y216855D01*
X820219Y215629D01*
X818949Y215881D01*
Y260350D01*
X818675Y261731D01*
X817892Y262902D01*
X782119Y298675D01*
Y419100D01*
X781845Y420481D01*
X781062Y421652D01*
X741692Y461022D01*
X740521Y461805D01*
X739140Y462079D01*
X718599D01*
X718564Y462111D01*
X718384Y462223D01*
X717865Y462743D01*
X716012Y463510D01*
X714007D01*
X712155Y462743D01*
X710737Y461325D01*
X709970Y459473D01*
Y457467D01*
X710737Y455615D01*
X712155Y454197D01*
X714007Y453430D01*
X716012D01*
X717865Y454197D01*
X718384Y454717D01*
X718564Y454829D01*
X718599Y454861D01*
X737645D01*
X774901Y417605D01*
Y297180D01*
X775175Y295799D01*
X775958Y294628D01*
X811731Y258855D01*
Y209329D01*
X811699Y209294D01*
X811587Y209114D01*
X811067Y208595D01*
X810300Y206742D01*
Y204737D01*
X811067Y202885D01*
X812485Y201467D01*
X814337Y200700D01*
X816342D01*
X818195Y201467D01*
X819613Y202885D01*
X820380Y204737D01*
Y206742D01*
X819613Y208595D01*
X819093Y209114D01*
X818981Y209294D01*
X818949Y209329D01*
Y212119D01*
X820219Y212371D01*
X820727Y211145D01*
X822145Y209727D01*
X823997Y208960D01*
X826003D01*
X827855Y209727D01*
X829273Y211145D01*
X830040Y212997D01*
Y215002D01*
X829289Y216815D01*
Y270330D01*
X829289Y270330D01*
X829015Y271711D01*
X828232Y272882D01*
X793549Y307565D01*
Y422910D01*
X793275Y424291D01*
X792492Y425462D01*
X744232Y473722D01*
X743061Y474505D01*
X741680Y474779D01*
X718599D01*
X718564Y474811D01*
X718384Y474923D01*
X717865Y475443D01*
X716012Y476210D01*
D02*
G37*
G36*
X838640Y321770D02*
X819560D01*
Y302690D01*
X825491D01*
Y301200D01*
X825765Y299819D01*
X826548Y298648D01*
X833573Y291622D01*
Y219235D01*
X833541Y219200D01*
X833429Y219021D01*
X832910Y218501D01*
X832142Y216649D01*
Y214643D01*
X832910Y212791D01*
X834328Y211373D01*
X836180Y210606D01*
X838185D01*
X840038Y211373D01*
X841455Y212791D01*
X842223Y214643D01*
Y216649D01*
X841455Y218501D01*
X840936Y219021D01*
X840824Y219200D01*
X840792Y219235D01*
Y293118D01*
X840517Y294499D01*
X839735Y295670D01*
X833888Y301517D01*
X834374Y302690D01*
X838640D01*
Y321770D01*
D02*
G37*
G36*
X218490Y176440D02*
X187910D01*
Y145860D01*
X218490D01*
Y176440D01*
D02*
G37*
G36*
X104527Y141230D02*
X101873D01*
X99309Y140543D01*
X97011Y139216D01*
X95134Y137339D01*
X93807Y135041D01*
X93120Y132477D01*
Y129823D01*
X93807Y127259D01*
X95134Y124961D01*
X97011Y123084D01*
X99309Y121757D01*
X101873Y121070D01*
X104527D01*
X107091Y121757D01*
X109389Y123084D01*
X111266Y124961D01*
X112593Y127259D01*
X113280Y129823D01*
Y132477D01*
X112593Y135041D01*
X111266Y137339D01*
X109389Y139216D01*
X107091Y140543D01*
X104527Y141230D01*
D02*
G37*
G36*
X735062Y441920D02*
X733057D01*
X731205Y441153D01*
X729787Y439735D01*
X729020Y437882D01*
Y435877D01*
X729787Y434025D01*
X730175Y433637D01*
Y251669D01*
X583191Y104685D01*
X436800D01*
X435313Y104389D01*
X434053Y103547D01*
X429622Y99115D01*
X429431Y98991D01*
X429125Y98840D01*
X428716Y98686D01*
X428205Y98541D01*
X427592Y98414D01*
X426912Y98316D01*
X425155Y98197D01*
X424156Y98189D01*
X423917Y98140D01*
X422778D01*
X420225Y97456D01*
X417935Y96134D01*
X416066Y94265D01*
X414744Y91975D01*
X414060Y89422D01*
Y86778D01*
X414744Y84225D01*
X416066Y81935D01*
X417935Y80066D01*
X420225Y78744D01*
X422778Y78060D01*
X425422D01*
X427975Y78744D01*
X430265Y80066D01*
X432134Y81935D01*
X433456Y84225D01*
X434140Y86778D01*
Y87917D01*
X434189Y88156D01*
X434197Y89155D01*
X434316Y90912D01*
X434414Y91592D01*
X434541Y92205D01*
X434685Y92716D01*
X434840Y93125D01*
X434991Y93431D01*
X435115Y93622D01*
X438409Y96915D01*
X442321D01*
X442847Y95645D01*
X441466Y94265D01*
X440144Y91975D01*
X439460Y89422D01*
Y86778D01*
X440144Y84225D01*
X441466Y81935D01*
X443335Y80066D01*
X445625Y78744D01*
X448178Y78060D01*
X450822D01*
X453375Y78744D01*
X455665Y80066D01*
X457534Y81935D01*
X458856Y84225D01*
X459540Y86778D01*
Y89422D01*
X458856Y91975D01*
X457534Y94265D01*
X456153Y95645D01*
X456679Y96915D01*
X467721D01*
X468247Y95645D01*
X466866Y94265D01*
X465544Y91975D01*
X464860Y89422D01*
Y86778D01*
X465544Y84225D01*
X466866Y81935D01*
X468735Y80066D01*
X471025Y78744D01*
X473578Y78060D01*
X476222D01*
X478775Y78744D01*
X481065Y80066D01*
X482934Y81935D01*
X484256Y84225D01*
X484940Y86778D01*
Y89422D01*
X484256Y91975D01*
X482934Y94265D01*
X481553Y95645D01*
X482079Y96915D01*
X584800D01*
X586287Y97211D01*
X587547Y98053D01*
X736807Y247313D01*
X737649Y248573D01*
X737945Y250060D01*
Y433637D01*
X738333Y434025D01*
X739100Y435877D01*
Y437882D01*
X738333Y439735D01*
X736915Y441153D01*
X735062Y441920D01*
D02*
G37*
G36*
X723633D02*
X721628D01*
X719775Y441153D01*
X718357Y439735D01*
X717590Y437882D01*
Y435877D01*
X718357Y434025D01*
X718745Y433637D01*
Y256879D01*
X577511Y115645D01*
X422360D01*
X420873Y115349D01*
X419613Y114507D01*
X404222Y99115D01*
X404031Y98991D01*
X403725Y98840D01*
X403316Y98686D01*
X402805Y98541D01*
X402192Y98414D01*
X401512Y98316D01*
X399755Y98197D01*
X398756Y98189D01*
X398517Y98140D01*
X397378D01*
X394825Y97456D01*
X392535Y96134D01*
X390666Y94265D01*
X389344Y91975D01*
X388660Y89422D01*
Y86778D01*
X389344Y84225D01*
X390666Y81935D01*
X392535Y80066D01*
X394825Y78744D01*
X397378Y78060D01*
X400022D01*
X402575Y78744D01*
X404865Y80066D01*
X406734Y81935D01*
X408056Y84225D01*
X408740Y86778D01*
Y87917D01*
X408789Y88156D01*
X408797Y89155D01*
X408916Y90912D01*
X409014Y91592D01*
X409141Y92205D01*
X409285Y92716D01*
X409440Y93125D01*
X409591Y93431D01*
X409715Y93622D01*
X423969Y107875D01*
X579120D01*
X580607Y108171D01*
X581867Y109013D01*
X725377Y252523D01*
X726219Y253783D01*
X726515Y255270D01*
Y433637D01*
X726903Y434025D01*
X727670Y435877D01*
Y437882D01*
X726903Y439735D01*
X725485Y441153D01*
X723633Y441920D01*
D02*
G37*
G36*
X891340Y72740D02*
X871260D01*
Y52660D01*
X891340D01*
Y72740D01*
D02*
G37*
G36*
X857222D02*
X854578D01*
X852025Y72056D01*
X849735Y70734D01*
X847866Y68865D01*
X846544Y66575D01*
X845860Y64022D01*
Y61378D01*
X846544Y58825D01*
X847866Y56535D01*
X849735Y54666D01*
X852025Y53344D01*
X854578Y52660D01*
X857222D01*
X859775Y53344D01*
X862065Y54666D01*
X863934Y56535D01*
X865256Y58825D01*
X865940Y61378D01*
Y64022D01*
X865256Y66575D01*
X863934Y68865D01*
X862065Y70734D01*
X859775Y72056D01*
X857222Y72740D01*
D02*
G37*
G36*
X831822D02*
X829178D01*
X826625Y72056D01*
X824335Y70734D01*
X822466Y68865D01*
X821144Y66575D01*
X820460Y64022D01*
Y61378D01*
X821144Y58825D01*
X822466Y56535D01*
X824335Y54666D01*
X826625Y53344D01*
X829178Y52660D01*
X831822D01*
X834375Y53344D01*
X836665Y54666D01*
X838534Y56535D01*
X839856Y58825D01*
X840540Y61378D01*
Y64022D01*
X839856Y66575D01*
X838534Y68865D01*
X836665Y70734D01*
X834375Y72056D01*
X831822Y72740D01*
D02*
G37*
G36*
X806422D02*
X803778D01*
X801225Y72056D01*
X798935Y70734D01*
X797066Y68865D01*
X795744Y66575D01*
X795060Y64022D01*
Y61378D01*
X795744Y58825D01*
X797066Y56535D01*
X798935Y54666D01*
X801225Y53344D01*
X803778Y52660D01*
X806422D01*
X808975Y53344D01*
X811265Y54666D01*
X813134Y56535D01*
X814456Y58825D01*
X815140Y61378D01*
Y64022D01*
X814456Y66575D01*
X813134Y68865D01*
X811265Y70734D01*
X808975Y72056D01*
X806422Y72740D01*
D02*
G37*
G36*
X755622D02*
X752978D01*
X750425Y72056D01*
X748135Y70734D01*
X746266Y68865D01*
X744944Y66575D01*
X744260Y64022D01*
Y61378D01*
X744944Y58825D01*
X746266Y56535D01*
X748135Y54666D01*
X750425Y53344D01*
X752978Y52660D01*
X755622D01*
X758175Y53344D01*
X760465Y54666D01*
X762334Y56535D01*
X763656Y58825D01*
X764340Y61378D01*
Y64022D01*
X763656Y66575D01*
X762334Y68865D01*
X760465Y70734D01*
X758175Y72056D01*
X755622Y72740D01*
D02*
G37*
G36*
X730222D02*
X727578D01*
X725025Y72056D01*
X722735Y70734D01*
X720866Y68865D01*
X719544Y66575D01*
X718860Y64022D01*
Y61378D01*
X719544Y58825D01*
X720866Y56535D01*
X722735Y54666D01*
X725025Y53344D01*
X727578Y52660D01*
X730222D01*
X732775Y53344D01*
X735065Y54666D01*
X736934Y56535D01*
X738256Y58825D01*
X738940Y61378D01*
Y64022D01*
X738256Y66575D01*
X736934Y68865D01*
X735065Y70734D01*
X732775Y72056D01*
X730222Y72740D01*
D02*
G37*
G36*
X704822D02*
X702178D01*
X699625Y72056D01*
X697335Y70734D01*
X695466Y68865D01*
X694144Y66575D01*
X693460Y64022D01*
Y61378D01*
X694144Y58825D01*
X695466Y56535D01*
X697335Y54666D01*
X699625Y53344D01*
X702178Y52660D01*
X704822D01*
X707375Y53344D01*
X709665Y54666D01*
X711534Y56535D01*
X712856Y58825D01*
X713540Y61378D01*
Y64022D01*
X712856Y66575D01*
X711534Y68865D01*
X709665Y70734D01*
X707375Y72056D01*
X704822Y72740D01*
D02*
G37*
G36*
X679422D02*
X676778D01*
X674225Y72056D01*
X671935Y70734D01*
X670066Y68865D01*
X668744Y66575D01*
X668060Y64022D01*
Y61378D01*
X668744Y58825D01*
X670066Y56535D01*
X671935Y54666D01*
X674225Y53344D01*
X676778Y52660D01*
X679422D01*
X681975Y53344D01*
X684265Y54666D01*
X686134Y56535D01*
X687456Y58825D01*
X688140Y61378D01*
Y64022D01*
X687456Y66575D01*
X686134Y68865D01*
X684265Y70734D01*
X681975Y72056D01*
X679422Y72740D01*
D02*
G37*
G36*
X654022D02*
X651378D01*
X648825Y72056D01*
X646535Y70734D01*
X644666Y68865D01*
X643344Y66575D01*
X642660Y64022D01*
Y61378D01*
X643344Y58825D01*
X644666Y56535D01*
X646535Y54666D01*
X648825Y53344D01*
X651378Y52660D01*
X654022D01*
X656575Y53344D01*
X658865Y54666D01*
X660734Y56535D01*
X662056Y58825D01*
X662740Y61378D01*
Y64022D01*
X662056Y66575D01*
X660734Y68865D01*
X658865Y70734D01*
X656575Y72056D01*
X654022Y72740D01*
D02*
G37*
G36*
X628622D02*
X625978D01*
X623425Y72056D01*
X621135Y70734D01*
X619266Y68865D01*
X617944Y66575D01*
X617260Y64022D01*
Y61378D01*
X617944Y58825D01*
X619266Y56535D01*
X621135Y54666D01*
X623425Y53344D01*
X625978Y52660D01*
X628622D01*
X631175Y53344D01*
X633465Y54666D01*
X635334Y56535D01*
X636656Y58825D01*
X637340Y61378D01*
Y64022D01*
X636656Y66575D01*
X635334Y68865D01*
X633465Y70734D01*
X631175Y72056D01*
X628622Y72740D01*
D02*
G37*
G36*
X603222D02*
X600578D01*
X598025Y72056D01*
X595735Y70734D01*
X593866Y68865D01*
X592544Y66575D01*
X591860Y64022D01*
Y61378D01*
X592544Y58825D01*
X593866Y56535D01*
X595735Y54666D01*
X598025Y53344D01*
X600578Y52660D01*
X603222D01*
X605775Y53344D01*
X608065Y54666D01*
X609934Y56535D01*
X611256Y58825D01*
X611940Y61378D01*
Y64022D01*
X611256Y66575D01*
X609934Y68865D01*
X608065Y70734D01*
X605775Y72056D01*
X603222Y72740D01*
D02*
G37*
G36*
X552422D02*
X549778D01*
X547225Y72056D01*
X544935Y70734D01*
X543066Y68865D01*
X541744Y66575D01*
X541060Y64022D01*
Y61378D01*
X541744Y58825D01*
X543066Y56535D01*
X544935Y54666D01*
X547225Y53344D01*
X549778Y52660D01*
X552422D01*
X554975Y53344D01*
X557265Y54666D01*
X559134Y56535D01*
X560456Y58825D01*
X561140Y61378D01*
Y64022D01*
X560456Y66575D01*
X559134Y68865D01*
X557265Y70734D01*
X554975Y72056D01*
X552422Y72740D01*
D02*
G37*
G36*
X527022D02*
X524378D01*
X521825Y72056D01*
X519535Y70734D01*
X517666Y68865D01*
X516344Y66575D01*
X515660Y64022D01*
Y61378D01*
X516344Y58825D01*
X517666Y56535D01*
X519535Y54666D01*
X521825Y53344D01*
X524378Y52660D01*
X527022D01*
X529575Y53344D01*
X531865Y54666D01*
X533734Y56535D01*
X535056Y58825D01*
X535740Y61378D01*
Y64022D01*
X535056Y66575D01*
X533734Y68865D01*
X531865Y70734D01*
X529575Y72056D01*
X527022Y72740D01*
D02*
G37*
G36*
X501622D02*
X498978D01*
X496425Y72056D01*
X494135Y70734D01*
X492266Y68865D01*
X490944Y66575D01*
X490260Y64022D01*
Y61378D01*
X490944Y58825D01*
X492266Y56535D01*
X494135Y54666D01*
X496425Y53344D01*
X498978Y52660D01*
X501622D01*
X504175Y53344D01*
X506465Y54666D01*
X508334Y56535D01*
X509656Y58825D01*
X510340Y61378D01*
Y64022D01*
X509656Y66575D01*
X508334Y68865D01*
X506465Y70734D01*
X504175Y72056D01*
X501622Y72740D01*
D02*
G37*
G36*
X476222D02*
X473578D01*
X471025Y72056D01*
X468735Y70734D01*
X466866Y68865D01*
X465544Y66575D01*
X464860Y64022D01*
Y61378D01*
X465544Y58825D01*
X466866Y56535D01*
X468735Y54666D01*
X471025Y53344D01*
X473578Y52660D01*
X476222D01*
X478775Y53344D01*
X481065Y54666D01*
X482934Y56535D01*
X484256Y58825D01*
X484940Y61378D01*
Y64022D01*
X484256Y66575D01*
X482934Y68865D01*
X481065Y70734D01*
X478775Y72056D01*
X476222Y72740D01*
D02*
G37*
G36*
X450822D02*
X448178D01*
X445625Y72056D01*
X443335Y70734D01*
X441466Y68865D01*
X440144Y66575D01*
X439460Y64022D01*
Y61378D01*
X440144Y58825D01*
X441466Y56535D01*
X443335Y54666D01*
X445625Y53344D01*
X448178Y52660D01*
X450822D01*
X453375Y53344D01*
X455665Y54666D01*
X457534Y56535D01*
X458856Y58825D01*
X459540Y61378D01*
Y64022D01*
X458856Y66575D01*
X457534Y68865D01*
X455665Y70734D01*
X453375Y72056D01*
X450822Y72740D01*
D02*
G37*
G36*
X425422D02*
X422778D01*
X420225Y72056D01*
X417935Y70734D01*
X416066Y68865D01*
X414744Y66575D01*
X414060Y64022D01*
Y61378D01*
X414744Y58825D01*
X416066Y56535D01*
X417935Y54666D01*
X420225Y53344D01*
X422778Y52660D01*
X425422D01*
X427975Y53344D01*
X430265Y54666D01*
X432134Y56535D01*
X433456Y58825D01*
X434140Y61378D01*
Y64022D01*
X433456Y66575D01*
X432134Y68865D01*
X430265Y70734D01*
X427975Y72056D01*
X425422Y72740D01*
D02*
G37*
G36*
X882622Y47340D02*
X879978D01*
X877425Y46656D01*
X875135Y45334D01*
X873266Y43465D01*
X871944Y41175D01*
X871260Y38622D01*
Y35978D01*
X871944Y33425D01*
X873266Y31135D01*
X875135Y29266D01*
X877425Y27944D01*
X879978Y27260D01*
X882622D01*
X885175Y27944D01*
X887465Y29266D01*
X889334Y31135D01*
X890656Y33425D01*
X891340Y35978D01*
Y38622D01*
X890656Y41175D01*
X889334Y43465D01*
X887465Y45334D01*
X885175Y46656D01*
X882622Y47340D01*
D02*
G37*
G36*
X857222D02*
X854578D01*
X852025Y46656D01*
X849735Y45334D01*
X847866Y43465D01*
X846544Y41175D01*
X845860Y38622D01*
Y35978D01*
X846544Y33425D01*
X847866Y31135D01*
X849735Y29266D01*
X852025Y27944D01*
X854578Y27260D01*
X857222D01*
X859775Y27944D01*
X862065Y29266D01*
X863934Y31135D01*
X865256Y33425D01*
X865940Y35978D01*
Y38622D01*
X865256Y41175D01*
X863934Y43465D01*
X862065Y45334D01*
X859775Y46656D01*
X857222Y47340D01*
D02*
G37*
G36*
X806422D02*
X803778D01*
X801225Y46656D01*
X798935Y45334D01*
X797066Y43465D01*
X795744Y41175D01*
X795060Y38622D01*
Y35978D01*
X795744Y33425D01*
X797066Y31135D01*
X798935Y29266D01*
X801225Y27944D01*
X803778Y27260D01*
X806422D01*
X808975Y27944D01*
X811265Y29266D01*
X813134Y31135D01*
X814456Y33425D01*
X815140Y35978D01*
Y38622D01*
X814456Y41175D01*
X813134Y43465D01*
X811265Y45334D01*
X808975Y46656D01*
X806422Y47340D01*
D02*
G37*
G36*
X781022D02*
X778378D01*
X775825Y46656D01*
X773535Y45334D01*
X771666Y43465D01*
X770344Y41175D01*
X769660Y38622D01*
Y35978D01*
X770344Y33425D01*
X771666Y31135D01*
X773535Y29266D01*
X775825Y27944D01*
X778378Y27260D01*
X781022D01*
X783575Y27944D01*
X785865Y29266D01*
X787734Y31135D01*
X789056Y33425D01*
X789740Y35978D01*
Y38622D01*
X789056Y41175D01*
X787734Y43465D01*
X785865Y45334D01*
X783575Y46656D01*
X781022Y47340D01*
D02*
G37*
G36*
X755622D02*
X752978D01*
X750425Y46656D01*
X748135Y45334D01*
X746266Y43465D01*
X744944Y41175D01*
X744260Y38622D01*
Y35978D01*
X744944Y33425D01*
X746266Y31135D01*
X748135Y29266D01*
X750425Y27944D01*
X752978Y27260D01*
X755622D01*
X758175Y27944D01*
X760465Y29266D01*
X762334Y31135D01*
X763656Y33425D01*
X764340Y35978D01*
Y38622D01*
X763656Y41175D01*
X762334Y43465D01*
X760465Y45334D01*
X758175Y46656D01*
X755622Y47340D01*
D02*
G37*
G36*
X704822D02*
X702178D01*
X699625Y46656D01*
X697335Y45334D01*
X695466Y43465D01*
X694144Y41175D01*
X693460Y38622D01*
Y35978D01*
X694144Y33425D01*
X695466Y31135D01*
X697335Y29266D01*
X699625Y27944D01*
X702178Y27260D01*
X704822D01*
X707375Y27944D01*
X709665Y29266D01*
X711534Y31135D01*
X712856Y33425D01*
X713540Y35978D01*
Y38622D01*
X712856Y41175D01*
X711534Y43465D01*
X709665Y45334D01*
X707375Y46656D01*
X704822Y47340D01*
D02*
G37*
G36*
X679422D02*
X676778D01*
X674225Y46656D01*
X671935Y45334D01*
X670066Y43465D01*
X668744Y41175D01*
X668060Y38622D01*
Y35978D01*
X668744Y33425D01*
X670066Y31135D01*
X671935Y29266D01*
X674225Y27944D01*
X676778Y27260D01*
X679422D01*
X681975Y27944D01*
X684265Y29266D01*
X686134Y31135D01*
X687456Y33425D01*
X688140Y35978D01*
Y38622D01*
X687456Y41175D01*
X686134Y43465D01*
X684265Y45334D01*
X681975Y46656D01*
X679422Y47340D01*
D02*
G37*
G36*
X628622D02*
X625978D01*
X623425Y46656D01*
X621135Y45334D01*
X619266Y43465D01*
X617944Y41175D01*
X617260Y38622D01*
Y35978D01*
X617944Y33425D01*
X619266Y31135D01*
X621135Y29266D01*
X623425Y27944D01*
X625978Y27260D01*
X628622D01*
X631175Y27944D01*
X633465Y29266D01*
X635334Y31135D01*
X636656Y33425D01*
X637340Y35978D01*
Y38622D01*
X636656Y41175D01*
X635334Y43465D01*
X633465Y45334D01*
X631175Y46656D01*
X628622Y47340D01*
D02*
G37*
G36*
X603222D02*
X600578D01*
X598025Y46656D01*
X595735Y45334D01*
X593866Y43465D01*
X592544Y41175D01*
X591860Y38622D01*
Y35978D01*
X592544Y33425D01*
X593866Y31135D01*
X595735Y29266D01*
X598025Y27944D01*
X600578Y27260D01*
X603222D01*
X605775Y27944D01*
X608065Y29266D01*
X609934Y31135D01*
X611256Y33425D01*
X611940Y35978D01*
Y38622D01*
X611256Y41175D01*
X609934Y43465D01*
X608065Y45334D01*
X605775Y46656D01*
X603222Y47340D01*
D02*
G37*
G36*
X577822D02*
X575178D01*
X572625Y46656D01*
X570335Y45334D01*
X568466Y43465D01*
X567144Y41175D01*
X566460Y38622D01*
Y35978D01*
X567144Y33425D01*
X568466Y31135D01*
X570335Y29266D01*
X572625Y27944D01*
X575178Y27260D01*
X577822D01*
X580375Y27944D01*
X582665Y29266D01*
X584534Y31135D01*
X585856Y33425D01*
X586540Y35978D01*
Y38622D01*
X585856Y41175D01*
X584534Y43465D01*
X582665Y45334D01*
X580375Y46656D01*
X577822Y47340D01*
D02*
G37*
G36*
X552422D02*
X549778D01*
X547225Y46656D01*
X544935Y45334D01*
X543066Y43465D01*
X541744Y41175D01*
X541060Y38622D01*
Y35978D01*
X541744Y33425D01*
X543066Y31135D01*
X544935Y29266D01*
X547225Y27944D01*
X549778Y27260D01*
X552422D01*
X554975Y27944D01*
X557265Y29266D01*
X559134Y31135D01*
X560456Y33425D01*
X561140Y35978D01*
Y38622D01*
X560456Y41175D01*
X559134Y43465D01*
X557265Y45334D01*
X554975Y46656D01*
X552422Y47340D01*
D02*
G37*
G36*
X501622D02*
X498978D01*
X496425Y46656D01*
X494135Y45334D01*
X492266Y43465D01*
X490944Y41175D01*
X490260Y38622D01*
Y35978D01*
X490944Y33425D01*
X492266Y31135D01*
X494135Y29266D01*
X496425Y27944D01*
X498978Y27260D01*
X501622D01*
X504175Y27944D01*
X506465Y29266D01*
X508334Y31135D01*
X509656Y33425D01*
X510340Y35978D01*
Y38622D01*
X509656Y41175D01*
X508334Y43465D01*
X506465Y45334D01*
X504175Y46656D01*
X501622Y47340D01*
D02*
G37*
G36*
X450822D02*
X448178D01*
X445625Y46656D01*
X443335Y45334D01*
X441466Y43465D01*
X440144Y41175D01*
X439460Y38622D01*
Y35978D01*
X440144Y33425D01*
X441466Y31135D01*
X443335Y29266D01*
X445625Y27944D01*
X448178Y27260D01*
X450822D01*
X453375Y27944D01*
X455665Y29266D01*
X457534Y31135D01*
X458856Y33425D01*
X459540Y35978D01*
Y38622D01*
X458856Y41175D01*
X457534Y43465D01*
X455665Y45334D01*
X453375Y46656D01*
X450822Y47340D01*
D02*
G37*
G36*
X425422D02*
X422778D01*
X420225Y46656D01*
X417935Y45334D01*
X416066Y43465D01*
X414744Y41175D01*
X414060Y38622D01*
Y35978D01*
X414744Y33425D01*
X416066Y31135D01*
X417935Y29266D01*
X420225Y27944D01*
X422778Y27260D01*
X425422D01*
X427975Y27944D01*
X430265Y29266D01*
X432134Y31135D01*
X433456Y33425D01*
X434140Y35978D01*
Y38622D01*
X433456Y41175D01*
X432134Y43465D01*
X430265Y45334D01*
X427975Y46656D01*
X425422Y47340D01*
D02*
G37*
G36*
X400022D02*
X397378D01*
X394825Y46656D01*
X392535Y45334D01*
X390666Y43465D01*
X389344Y41175D01*
X388660Y38622D01*
Y35978D01*
X389344Y33425D01*
X390666Y31135D01*
X392535Y29266D01*
X394825Y27944D01*
X397378Y27260D01*
X400022D01*
X402575Y27944D01*
X404865Y29266D01*
X406734Y31135D01*
X408056Y33425D01*
X408740Y35978D01*
Y38622D01*
X408056Y41175D01*
X406734Y43465D01*
X404865Y45334D01*
X402575Y46656D01*
X400022Y47340D01*
D02*
G37*
%LPD*%
G36*
X700795Y669210D02*
X700821Y668975D01*
X700864Y668763D01*
X700926Y668572D01*
X701004Y668405D01*
X701100Y668260D01*
X701213Y668137D01*
X701344Y668036D01*
X701493Y667958D01*
X701658Y667902D01*
X698663Y666256D01*
X698687Y666352D01*
X698708Y666491D01*
X698742Y666898D01*
X698781Y668223D01*
X698786Y669143D01*
X700786Y669467D01*
X700795Y669210D01*
D02*
G37*
G36*
X305273Y619939D02*
X305205Y619815D01*
X305145Y619673D01*
X305093Y619512D01*
X305050Y619333D01*
X305014Y619136D01*
X304966Y618685D01*
X304954Y618432D01*
X304950Y618160D01*
X302410Y617858D01*
X302405Y618127D01*
X302361Y618609D01*
X302323Y618821D01*
X302274Y619014D01*
X302214Y619187D01*
X302144Y619341D01*
X302062Y619476D01*
X301970Y619592D01*
X301866Y619688D01*
X305348Y620044D01*
X305273Y619939D01*
D02*
G37*
G36*
X324594Y604312D02*
X324423Y604131D01*
X324271Y603946D01*
X324137Y603759D01*
X324021Y603569D01*
X323923Y603375D01*
X323843Y603179D01*
X323781Y602980D01*
X323738Y602777D01*
X323713Y602571D01*
X323706Y602363D01*
X321231Y604838D01*
X321440Y604845D01*
X321645Y604870D01*
X321847Y604913D01*
X322047Y604975D01*
X322243Y605055D01*
X322437Y605153D01*
X322627Y605269D01*
X322814Y605403D01*
X322999Y605555D01*
X323180Y605726D01*
X324594Y604312D01*
D02*
G37*
G36*
X341755Y600600D02*
X341617Y600592D01*
X341474Y600563D01*
X341323Y600515D01*
X341167Y600446D01*
X341004Y600358D01*
X340835Y600250D01*
X340659Y600122D01*
X340477Y599974D01*
X340095Y599619D01*
X338299Y601415D01*
X338486Y601609D01*
X338802Y601979D01*
X338930Y602155D01*
X339038Y602324D01*
X339126Y602487D01*
X339195Y602643D01*
X339243Y602794D01*
X339272Y602937D01*
X339280Y603075D01*
X341755Y600600D01*
D02*
G37*
G36*
X310717Y513345D02*
X310524Y513146D01*
X310069Y512613D01*
X309960Y512456D01*
X309872Y512310D01*
X309805Y512174D01*
X309759Y512049D01*
X309734Y511934D01*
X309730Y511830D01*
X307406Y514154D01*
X307510Y514158D01*
X307625Y514183D01*
X307750Y514229D01*
X307886Y514296D01*
X308032Y514384D01*
X308189Y514493D01*
X308356Y514624D01*
X308722Y514948D01*
X308921Y515141D01*
X310717Y513345D01*
D02*
G37*
G36*
X294691Y497172D02*
X295060Y496853D01*
X295233Y496725D01*
X295399Y496616D01*
X295557Y496528D01*
X295707Y496460D01*
X295850Y496413D01*
X295985Y496386D01*
X296113Y496379D01*
X293681Y493947D01*
X293674Y494075D01*
X293647Y494210D01*
X293599Y494353D01*
X293532Y494503D01*
X293444Y494661D01*
X293335Y494827D01*
X293207Y495000D01*
X292888Y495369D01*
X292699Y495565D01*
X294495Y497361D01*
X294691Y497172D01*
D02*
G37*
G36*
X309217Y492497D02*
X309130Y492608D01*
X309022Y492707D01*
X308894Y492795D01*
X308745Y492871D01*
X308577Y492935D01*
X308388Y492987D01*
X308179Y493028D01*
X307950Y493057D01*
X307701Y493075D01*
X307431Y493081D01*
X308006Y495621D01*
X308279Y495624D01*
X308985Y495671D01*
X309182Y495699D01*
X309517Y495775D01*
X309656Y495822D01*
X309776Y495875D01*
X309876Y495935D01*
X309217Y492497D01*
D02*
G37*
G36*
X475642Y660738D02*
X475763Y660654D01*
X475902Y660579D01*
X476060Y660514D01*
X476237Y660460D01*
X476432Y660415D01*
X476646Y660380D01*
X476879Y660355D01*
X477400Y660335D01*
X477324Y657795D01*
X477053Y657790D01*
X476568Y657754D01*
X476352Y657721D01*
X476156Y657680D01*
X475978Y657629D01*
X475818Y657569D01*
X475676Y657500D01*
X475554Y657422D01*
X475449Y657334D01*
X475540Y660833D01*
X475642Y660738D01*
D02*
G37*
G36*
X536170Y657297D02*
X536068Y657392D01*
X535947Y657476D01*
X535808Y657551D01*
X535650Y657616D01*
X535473Y657671D01*
X535278Y657715D01*
X535064Y657750D01*
X534831Y657775D01*
X534310Y657795D01*
X534386Y660335D01*
X534657Y660340D01*
X535142Y660377D01*
X535358Y660409D01*
X535554Y660450D01*
X535732Y660501D01*
X535892Y660561D01*
X536034Y660630D01*
X536156Y660708D01*
X536261Y660796D01*
X536170Y657297D01*
D02*
G37*
G36*
X312218Y659195D02*
X312351Y659049D01*
X312499Y658920D01*
X312661Y658809D01*
X312839Y658714D01*
X313032Y658637D01*
X313239Y658577D01*
X313461Y658534D01*
X313698Y658509D01*
X313950Y658500D01*
X313500Y656500D01*
X313253Y656494D01*
X312784Y656449D01*
X312562Y656408D01*
X312348Y656357D01*
X312142Y656294D01*
X311944Y656220D01*
X311754Y656134D01*
X311573Y656037D01*
X311399Y655928D01*
X312099Y659358D01*
X312218Y659195D01*
D02*
G37*
G36*
X362901Y655642D02*
X362782Y655805D01*
X362649Y655951D01*
X362501Y656080D01*
X362338Y656191D01*
X362161Y656286D01*
X361968Y656363D01*
X361761Y656423D01*
X361539Y656466D01*
X361302Y656491D01*
X361050Y656500D01*
X361500Y658500D01*
X361747Y658506D01*
X362216Y658551D01*
X362438Y658592D01*
X362652Y658643D01*
X362858Y658706D01*
X363056Y658780D01*
X363246Y658866D01*
X363427Y658963D01*
X363601Y659072D01*
X362901Y655642D01*
D02*
G37*
G36*
X870320Y617000D02*
X869149Y616992D01*
X867054Y616857D01*
X866130Y616729D01*
X865288Y616561D01*
X864529Y616354D01*
X863853Y616106D01*
X863259Y615818D01*
X862748Y615490D01*
X862319Y615123D01*
X860523Y616919D01*
X860890Y617348D01*
X861218Y617859D01*
X861506Y618453D01*
X861754Y619129D01*
X861961Y619888D01*
X862129Y620730D01*
X862257Y621654D01*
X862393Y623749D01*
X862400Y624920D01*
X870320Y617000D01*
D02*
G37*
G36*
X752459Y616339D02*
X752581Y616257D01*
X752721Y616185D01*
X752880Y616123D01*
X753058Y616070D01*
X753254Y616027D01*
X753468Y615993D01*
X753701Y615969D01*
X754223Y615950D01*
Y613410D01*
X753953Y613405D01*
X753468Y613367D01*
X753254Y613333D01*
X753058Y613290D01*
X752880Y613237D01*
X752721Y613175D01*
X752581Y613103D01*
X752459Y613021D01*
X752355Y612930D01*
Y616430D01*
X752459Y616339D01*
D02*
G37*
G36*
X792455Y593130D02*
X792317Y593121D01*
X792173Y593093D01*
X792023Y593045D01*
X791867Y592976D01*
X791704Y592888D01*
X791535Y592780D01*
X791359Y592652D01*
X791177Y592504D01*
X790795Y592149D01*
X788999Y593945D01*
X789186Y594139D01*
X789502Y594509D01*
X789630Y594685D01*
X789738Y594854D01*
X789826Y595017D01*
X789895Y595173D01*
X789943Y595323D01*
X789971Y595467D01*
X789980Y595605D01*
X792455Y593130D01*
D02*
G37*
G36*
X743569Y568079D02*
X743691Y567997D01*
X743831Y567925D01*
X743990Y567863D01*
X744168Y567810D01*
X744364Y567767D01*
X744578Y567733D01*
X744811Y567709D01*
X745333Y567690D01*
Y565150D01*
X745063Y565145D01*
X744578Y565107D01*
X744364Y565073D01*
X744168Y565030D01*
X743990Y564977D01*
X743831Y564915D01*
X743691Y564843D01*
X743569Y564761D01*
X743465Y564670D01*
Y568170D01*
X743569Y568079D01*
D02*
G37*
G36*
X621194Y549515D02*
X620998Y549552D01*
X620803Y549565D01*
X620609Y549556D01*
X620417Y549523D01*
X620226Y549467D01*
X620036Y549388D01*
X619848Y549285D01*
X619661Y549159D01*
X619475Y549010D01*
X619291Y548838D01*
X618245Y550621D01*
X618416Y550799D01*
X618717Y551162D01*
X618848Y551346D01*
X618965Y551532D01*
X619069Y551720D01*
X619160Y551910D01*
X619238Y552102D01*
X619302Y552296D01*
X619353Y552492D01*
X621194Y549515D01*
D02*
G37*
G36*
X562414Y549283D02*
X562563Y549145D01*
X562724Y549023D01*
X562899Y548917D01*
X563086Y548827D01*
X563285Y548754D01*
X563497Y548697D01*
X563722Y548657D01*
X563960Y548632D01*
X564210Y548624D01*
X563987Y546624D01*
X563739Y546617D01*
X563501Y546597D01*
X563271Y546564D01*
X563051Y546517D01*
X562840Y546457D01*
X562638Y546383D01*
X562446Y546297D01*
X562262Y546196D01*
X562088Y546083D01*
X561922Y545956D01*
X562278Y549438D01*
X562414Y549283D01*
D02*
G37*
G36*
X628625Y543600D02*
X628416Y543593D01*
X628211Y543568D01*
X628008Y543525D01*
X627809Y543463D01*
X627613Y543383D01*
X627419Y543285D01*
X627229Y543169D01*
X627042Y543035D01*
X626857Y542883D01*
X626676Y542712D01*
X625262Y544126D01*
X625433Y544308D01*
X625585Y544492D01*
X625719Y544679D01*
X625835Y544869D01*
X625933Y545063D01*
X626013Y545259D01*
X626075Y545458D01*
X626118Y545661D01*
X626143Y545867D01*
X626150Y546075D01*
X628625Y543600D01*
D02*
G37*
G36*
X581938Y535607D02*
X582101Y535480D01*
X582275Y535368D01*
X582459Y535270D01*
X582654Y535187D01*
X582860Y535120D01*
X583077Y535067D01*
X583304Y535030D01*
X583543Y535008D01*
X583791Y535000D01*
Y533000D01*
X583543Y532993D01*
X583304Y532970D01*
X583077Y532933D01*
X582860Y532880D01*
X582654Y532812D01*
X582459Y532730D01*
X582275Y532632D01*
X582101Y532520D01*
X581938Y532393D01*
X581785Y532250D01*
Y535750D01*
X581938Y535607D01*
D02*
G37*
G36*
X499507Y558767D02*
X499532Y558561D01*
X499575Y558358D01*
X499637Y558159D01*
X499717Y557963D01*
X499814Y557769D01*
X499931Y557579D01*
X500065Y557392D01*
X500217Y557207D01*
X500388Y557026D01*
X498974Y555612D01*
X498792Y555783D01*
X498608Y555935D01*
X498421Y556069D01*
X498231Y556185D01*
X498037Y556283D01*
X497841Y556363D01*
X497641Y556425D01*
X497439Y556468D01*
X497234Y556493D01*
X497025Y556500D01*
X499500Y558975D01*
X499507Y558767D01*
D02*
G37*
G36*
X665065Y544400D02*
X664912Y544543D01*
X664749Y544670D01*
X664575Y544782D01*
X664391Y544880D01*
X664196Y544963D01*
X663990Y545030D01*
X663773Y545083D01*
X663546Y545120D01*
X663307Y545143D01*
X663059Y545150D01*
Y547150D01*
X663307Y547158D01*
X663546Y547180D01*
X663773Y547217D01*
X663990Y547270D01*
X664196Y547337D01*
X664391Y547420D01*
X664575Y547518D01*
X664749Y547630D01*
X664912Y547757D01*
X665065Y547900D01*
Y544400D01*
D02*
G37*
G36*
X528889Y638659D02*
X529011Y638577D01*
X529151Y638505D01*
X529310Y638443D01*
X529488Y638390D01*
X529684Y638347D01*
X529898Y638313D01*
X530131Y638289D01*
X530653Y638270D01*
Y635730D01*
X530383Y635725D01*
X529898Y635687D01*
X529684Y635653D01*
X529488Y635610D01*
X529310Y635557D01*
X529151Y635495D01*
X529011Y635423D01*
X528889Y635341D01*
X528785Y635250D01*
Y638750D01*
X528889Y638659D01*
D02*
G37*
G36*
X634044Y608550D02*
X636870Y606061D01*
X637149Y605888D01*
X637373Y605785D01*
X637542Y605750D01*
X635040Y603248D01*
X635005Y603417D01*
X634902Y603641D01*
X634729Y603919D01*
X634487Y604253D01*
X633796Y605085D01*
X632240Y606746D01*
X631584Y607410D01*
X633380Y609206D01*
X634044Y608550D01*
D02*
G37*
G36*
X681752Y498112D02*
X682250Y490588D01*
X682406Y489944D01*
X682582Y489474D01*
X682779Y489179D01*
X677778D01*
X674241Y485643D01*
X674172Y485991D01*
X673965Y486448D01*
X673620Y487013D01*
X673137Y487687D01*
X671757Y489360D01*
X668652Y492686D01*
X667341Y494011D01*
X670876Y497547D01*
X672202Y496236D01*
X676473Y492495D01*
X676575Y493565D01*
X676731Y498112D01*
X676741Y499976D01*
X681741D01*
X681752Y498112D01*
D02*
G37*
G36*
X459878Y557062D02*
X459750Y556899D01*
X459637Y556725D01*
X459540Y556541D01*
X459458Y556346D01*
X459390Y556140D01*
X459338Y555923D01*
X459300Y555696D01*
X459277Y555457D01*
X459270Y555209D01*
X457270D01*
X457262Y555457D01*
X457240Y555696D01*
X457202Y555923D01*
X457150Y556140D01*
X457082Y556346D01*
X457000Y556541D01*
X456903Y556725D01*
X456790Y556899D01*
X456662Y557062D01*
X456520Y557215D01*
X460020D01*
X459878Y557062D01*
D02*
G37*
G36*
X361688Y411213D02*
X361710Y410974D01*
X361748Y410747D01*
X361800Y410530D01*
X361867Y410324D01*
X361950Y410129D01*
X362048Y409945D01*
X362160Y409771D01*
X362287Y409608D01*
X362430Y409455D01*
X358930D01*
X359072Y409608D01*
X359200Y409771D01*
X359313Y409945D01*
X359410Y410129D01*
X359492Y410324D01*
X359560Y410530D01*
X359613Y410747D01*
X359650Y410974D01*
X359673Y411213D01*
X359680Y411461D01*
X361680D01*
X361688Y411213D01*
D02*
G37*
G36*
X687045Y662980D02*
X686836Y662973D01*
X686631Y662948D01*
X686429Y662905D01*
X686229Y662843D01*
X686033Y662763D01*
X685839Y662665D01*
X685649Y662549D01*
X685462Y662415D01*
X685277Y662263D01*
X685096Y662092D01*
X683682Y663506D01*
X683853Y663688D01*
X684005Y663872D01*
X684139Y664059D01*
X684256Y664249D01*
X684353Y664443D01*
X684433Y664639D01*
X684495Y664838D01*
X684538Y665041D01*
X684563Y665247D01*
X684570Y665455D01*
X687045Y662980D01*
D02*
G37*
G36*
X519405Y516930D02*
X519267Y516922D01*
X519123Y516893D01*
X518973Y516845D01*
X518817Y516776D01*
X518654Y516688D01*
X518485Y516580D01*
X518309Y516452D01*
X518127Y516304D01*
X517745Y515949D01*
X515949Y517745D01*
X516136Y517939D01*
X516452Y518309D01*
X516580Y518485D01*
X516688Y518654D01*
X516776Y518817D01*
X516845Y518973D01*
X516893Y519123D01*
X516922Y519267D01*
X516930Y519405D01*
X519405Y516930D01*
D02*
G37*
G36*
X337889Y391659D02*
X338011Y391577D01*
X338151Y391505D01*
X338310Y391443D01*
X338488Y391390D01*
X338684Y391347D01*
X338898Y391313D01*
X339131Y391289D01*
X339653Y391270D01*
Y388730D01*
X339383Y388725D01*
X338898Y388687D01*
X338684Y388653D01*
X338488Y388610D01*
X338310Y388557D01*
X338151Y388495D01*
X338011Y388423D01*
X337889Y388341D01*
X337785Y388250D01*
Y391750D01*
X337889Y391659D01*
D02*
G37*
G36*
X295527Y347362D02*
X295389Y347354D01*
X295245Y347325D01*
X295095Y347277D01*
X294939Y347208D01*
X294776Y347120D01*
X294607Y347012D01*
X294431Y346884D01*
X294249Y346736D01*
X293867Y346381D01*
X292071Y348177D01*
X292258Y348371D01*
X292574Y348741D01*
X292702Y348917D01*
X292810Y349086D01*
X292898Y349249D01*
X292967Y349405D01*
X293015Y349556D01*
X293043Y349699D01*
X293052Y349837D01*
X295527Y347362D01*
D02*
G37*
G36*
X305273Y348159D02*
X305205Y348035D01*
X305145Y347893D01*
X305093Y347732D01*
X305050Y347553D01*
X305014Y347356D01*
X304966Y346905D01*
X304954Y346652D01*
X304950Y346380D01*
X302410Y346078D01*
X302405Y346347D01*
X302361Y346829D01*
X302323Y347041D01*
X302274Y347234D01*
X302214Y347407D01*
X302144Y347561D01*
X302062Y347696D01*
X301970Y347812D01*
X301866Y347908D01*
X305348Y348264D01*
X305273Y348159D01*
D02*
G37*
G36*
X324594Y332532D02*
X324423Y332351D01*
X324271Y332166D01*
X324137Y331979D01*
X324021Y331789D01*
X323923Y331595D01*
X323843Y331399D01*
X323781Y331199D01*
X323738Y330997D01*
X323713Y330792D01*
X323706Y330583D01*
X321231Y333058D01*
X321440Y333065D01*
X321645Y333090D01*
X321847Y333133D01*
X322047Y333195D01*
X322243Y333275D01*
X322437Y333372D01*
X322627Y333489D01*
X322814Y333623D01*
X322999Y333775D01*
X323180Y333946D01*
X324594Y332532D01*
D02*
G37*
G36*
X341755Y328820D02*
X341617Y328811D01*
X341474Y328783D01*
X341323Y328735D01*
X341167Y328666D01*
X341004Y328578D01*
X340835Y328470D01*
X340659Y328342D01*
X340477Y328194D01*
X340095Y327839D01*
X338299Y329635D01*
X338486Y329829D01*
X338802Y330199D01*
X338930Y330375D01*
X339038Y330544D01*
X339126Y330707D01*
X339195Y330863D01*
X339243Y331013D01*
X339272Y331157D01*
X339280Y331295D01*
X341755Y328820D01*
D02*
G37*
G36*
X310537Y242050D02*
X310350Y241856D01*
X310045Y241484D01*
X309926Y241308D01*
X309830Y241137D01*
X309756Y240973D01*
X309705Y240814D01*
X309676Y240662D01*
X309670Y240515D01*
X309687Y240375D01*
X306790Y242340D01*
X306903Y242369D01*
X307025Y242415D01*
X307157Y242480D01*
X307297Y242563D01*
X307447Y242664D01*
X307775Y242920D01*
X307952Y243076D01*
X308335Y243440D01*
X310537Y242050D01*
D02*
G37*
G36*
X294691Y225392D02*
X295060Y225073D01*
X295233Y224945D01*
X295399Y224836D01*
X295557Y224748D01*
X295707Y224681D01*
X295850Y224633D01*
X295985Y224606D01*
X296113Y224599D01*
X293681Y222167D01*
X293674Y222295D01*
X293647Y222430D01*
X293599Y222573D01*
X293532Y222723D01*
X293444Y222881D01*
X293335Y223047D01*
X293207Y223220D01*
X292888Y223589D01*
X292699Y223785D01*
X294495Y225581D01*
X294691Y225392D01*
D02*
G37*
G36*
X309217Y220717D02*
X309130Y220828D01*
X309022Y220927D01*
X308894Y221015D01*
X308745Y221091D01*
X308577Y221155D01*
X308388Y221207D01*
X308179Y221248D01*
X307950Y221277D01*
X307701Y221295D01*
X307431Y221301D01*
X308006Y223841D01*
X308279Y223844D01*
X308985Y223891D01*
X309182Y223919D01*
X309517Y223995D01*
X309656Y224042D01*
X309776Y224095D01*
X309876Y224155D01*
X309217Y220717D01*
D02*
G37*
G36*
X660279Y309201D02*
X660289Y309095D01*
X660319Y308981D01*
X660369Y308857D01*
X660440Y308724D01*
X660532Y308581D01*
X660645Y308428D01*
X660778Y308267D01*
X661107Y307915D01*
X659693Y306501D01*
X659501Y306688D01*
X658991Y307119D01*
X658843Y307221D01*
X658705Y307302D01*
X658578Y307361D01*
X658462Y307399D01*
X658356Y307416D01*
X658261Y307412D01*
X660291Y309296D01*
X660279Y309201D01*
D02*
G37*
G36*
X669628Y307942D02*
X669500Y307779D01*
X669388Y307605D01*
X669290Y307421D01*
X669208Y307226D01*
X669140Y307020D01*
X669088Y306803D01*
X669050Y306576D01*
X669027Y306338D01*
X669020Y306089D01*
X667020D01*
X667012Y306338D01*
X666990Y306576D01*
X666953Y306803D01*
X666900Y307020D01*
X666833Y307226D01*
X666750Y307421D01*
X666653Y307605D01*
X666540Y307779D01*
X666413Y307942D01*
X666270Y308095D01*
X669770D01*
X669628Y307942D01*
D02*
G37*
G36*
X679425Y283250D02*
X679217Y283243D01*
X679011Y283218D01*
X678809Y283175D01*
X678609Y283113D01*
X678413Y283033D01*
X678219Y282936D01*
X678029Y282819D01*
X677842Y282685D01*
X677657Y282533D01*
X677476Y282362D01*
X676062Y283776D01*
X676233Y283958D01*
X676385Y284142D01*
X676519Y284329D01*
X676636Y284519D01*
X676733Y284713D01*
X676813Y284909D01*
X676875Y285109D01*
X676918Y285311D01*
X676943Y285516D01*
X676950Y285725D01*
X679425Y283250D01*
D02*
G37*
G36*
X454650Y219188D02*
X454673Y218950D01*
X454710Y218723D01*
X454762Y218506D01*
X454830Y218300D01*
X454912Y218105D01*
X455010Y217921D01*
X455122Y217747D01*
X455250Y217584D01*
X455392Y217431D01*
X451893D01*
X452035Y217584D01*
X452163Y217747D01*
X452275Y217921D01*
X452373Y218105D01*
X452455Y218300D01*
X452523Y218506D01*
X452575Y218723D01*
X452612Y218950D01*
X452635Y219188D01*
X452643Y219437D01*
X454642D01*
X454650Y219188D01*
D02*
G37*
G36*
X443285Y217238D02*
X443351Y216226D01*
X443372Y216144D01*
X443395Y216088D01*
X443422Y216056D01*
X441079Y216324D01*
X441118Y216351D01*
X441153Y216397D01*
X441184Y216464D01*
X441210Y216550D01*
X441233Y216657D01*
X441251Y216784D01*
X441276Y217099D01*
X441284Y217494D01*
X443284D01*
X443285Y217238D01*
D02*
G37*
G36*
X433008Y211542D02*
X433030Y211304D01*
X433068Y211077D01*
X433120Y210860D01*
X433187Y210654D01*
X433270Y210459D01*
X433368Y210275D01*
X433480Y210101D01*
X433607Y209938D01*
X433750Y209785D01*
X430250D01*
X430392Y209938D01*
X430520Y210101D01*
X430633Y210275D01*
X430730Y210459D01*
X430812Y210654D01*
X430880Y210860D01*
X430933Y211077D01*
X430970Y211304D01*
X430993Y211542D01*
X431000Y211791D01*
X433000D01*
X433008Y211542D01*
D02*
G37*
G36*
X588010Y387350D02*
X588010Y368300D01*
X585470Y365760D01*
X448260D01*
X407500Y325000D01*
Y305000D01*
X405000Y302500D01*
X385000D01*
X382500Y305000D01*
Y345000D01*
X432470Y394970D01*
X580390D01*
X588010Y387350D01*
D02*
G37*
G36*
X716948Y472777D02*
X717111Y472650D01*
X717285Y472537D01*
X717469Y472440D01*
X717664Y472357D01*
X717870Y472290D01*
X718087Y472238D01*
X718314Y472200D01*
X718552Y472178D01*
X718801Y472170D01*
Y470170D01*
X718552Y470163D01*
X718314Y470140D01*
X718087Y470103D01*
X717870Y470050D01*
X717664Y469982D01*
X717469Y469900D01*
X717285Y469803D01*
X717111Y469690D01*
X716948Y469562D01*
X716795Y469420D01*
Y472920D01*
X716948Y472777D01*
D02*
G37*
G36*
Y460078D02*
X717111Y459950D01*
X717285Y459837D01*
X717469Y459740D01*
X717664Y459658D01*
X717870Y459590D01*
X718087Y459538D01*
X718314Y459500D01*
X718552Y459478D01*
X718801Y459470D01*
Y457470D01*
X718552Y457463D01*
X718314Y457440D01*
X718087Y457402D01*
X717870Y457350D01*
X717664Y457282D01*
X717469Y457200D01*
X717285Y457103D01*
X717111Y456990D01*
X716948Y456862D01*
X716795Y456720D01*
Y460220D01*
X716948Y460078D01*
D02*
G37*
G36*
X816348Y209282D02*
X816370Y209044D01*
X816407Y208817D01*
X816460Y208600D01*
X816527Y208394D01*
X816610Y208199D01*
X816708Y208015D01*
X816820Y207841D01*
X816947Y207678D01*
X817090Y207525D01*
X813590D01*
X813733Y207678D01*
X813860Y207841D01*
X813972Y208015D01*
X814070Y208199D01*
X814153Y208394D01*
X814220Y208600D01*
X814273Y208817D01*
X814310Y209044D01*
X814333Y209282D01*
X814340Y209531D01*
X816340D01*
X816348Y209282D01*
D02*
G37*
G36*
X830910Y305240D02*
X830740Y305180D01*
X830590Y305081D01*
X830460Y304940D01*
X830350Y304760D01*
X830260Y304541D01*
X830190Y304280D01*
X830140Y303981D01*
X830110Y303640D01*
X830100Y303260D01*
X828100D01*
X828090Y303640D01*
X828060Y303981D01*
X828010Y304280D01*
X827940Y304541D01*
X827850Y304760D01*
X827740Y304940D01*
X827610Y305081D01*
X827460Y305180D01*
X827290Y305240D01*
X827100Y305261D01*
X831100D01*
X830910Y305240D01*
D02*
G37*
G36*
X838190Y219188D02*
X838213Y218950D01*
X838250Y218723D01*
X838303Y218506D01*
X838370Y218300D01*
X838453Y218105D01*
X838550Y217921D01*
X838662Y217747D01*
X838790Y217584D01*
X838932Y217431D01*
X835433D01*
X835575Y217584D01*
X835703Y217747D01*
X835815Y217921D01*
X835912Y218105D01*
X835995Y218300D01*
X836062Y218506D01*
X836115Y218723D01*
X836152Y218950D01*
X836175Y219188D01*
X836182Y219437D01*
X838183D01*
X838190Y219188D01*
D02*
G37*
G36*
X735719Y434991D02*
X735637Y434869D01*
X735565Y434729D01*
X735503Y434570D01*
X735450Y434392D01*
X735407Y434196D01*
X735373Y433982D01*
X735349Y433749D01*
X735330Y433227D01*
X732790D01*
X732785Y433497D01*
X732747Y433982D01*
X732713Y434196D01*
X732670Y434392D01*
X732617Y434570D01*
X732555Y434729D01*
X732483Y434869D01*
X732401Y434991D01*
X732310Y435095D01*
X735810D01*
X735719Y434991D01*
D02*
G37*
G36*
X433407Y95611D02*
X433053Y95201D01*
X432738Y94717D01*
X432462Y94159D01*
X432223Y93527D01*
X432024Y92820D01*
X431862Y92040D01*
X431739Y91185D01*
X431608Y89253D01*
X431600Y88175D01*
X424175Y95600D01*
X425252Y95608D01*
X427185Y95739D01*
X428040Y95862D01*
X428820Y96024D01*
X429527Y96223D01*
X430159Y96462D01*
X430717Y96738D01*
X431201Y97053D01*
X431611Y97407D01*
X433407Y95611D01*
D02*
G37*
G36*
X724289Y434991D02*
X724207Y434869D01*
X724135Y434729D01*
X724073Y434570D01*
X724020Y434392D01*
X723977Y434196D01*
X723943Y433982D01*
X723919Y433749D01*
X723900Y433227D01*
X721360D01*
X721355Y433497D01*
X721317Y433982D01*
X721283Y434196D01*
X721240Y434392D01*
X721187Y434570D01*
X721125Y434729D01*
X721053Y434869D01*
X720971Y434991D01*
X720880Y435095D01*
X724380D01*
X724289Y434991D01*
D02*
G37*
G36*
X408007Y95611D02*
X407653Y95201D01*
X407338Y94717D01*
X407062Y94159D01*
X406823Y93527D01*
X406623Y92820D01*
X406462Y92040D01*
X406339Y91185D01*
X406208Y89253D01*
X406200Y88175D01*
X398775Y95600D01*
X399852Y95608D01*
X401785Y95739D01*
X402640Y95862D01*
X403420Y96024D01*
X404127Y96223D01*
X404759Y96462D01*
X405317Y96738D01*
X405801Y97053D01*
X406211Y97407D01*
X408007Y95611D01*
D02*
G37*
D11*
X482500Y511710D02*
Y624740D01*
X333000Y397000D02*
X367790D01*
X482500Y511710D01*
X327000Y336352D02*
Y391000D01*
X333000Y397000D01*
X657860Y309748D02*
X660400Y307208D01*
Y278130D02*
Y307208D01*
X657860Y309748D02*
Y309880D01*
X638810Y256540D02*
X660400Y278130D01*
X642620Y250190D02*
X668020Y275590D01*
Y309880D01*
X500380Y250190D02*
X642620D01*
X472440Y256540D02*
X638810D01*
X432000Y208000D02*
Y216100D01*
X472440Y256540D01*
X476250Y251460D02*
X499110D01*
X442000Y214000D02*
X442284Y214284D01*
Y217494D01*
X476250Y251460D01*
X453643Y215646D02*
Y219963D01*
X480060Y246380D02*
X494453D01*
X453643Y219963D02*
X480060Y246380D01*
X499110Y251460D02*
X500380Y250190D01*
X496913Y243840D02*
X645160D01*
X675640Y274320D01*
Y281940D01*
X494948Y245805D02*
X496913Y243840D01*
X494453Y246380D02*
X494948Y245805D01*
X675640Y281940D02*
X679450Y285750D01*
X360680Y407670D02*
Y417830D01*
X699786Y667546D02*
Y670544D01*
X679450Y676910D02*
X693420D01*
X699786Y670544D01*
Y667546D02*
X701040Y666292D01*
Y665480D02*
Y666292D01*
X674370Y671830D02*
X679450Y676910D01*
X471830Y671830D02*
X674370D01*
X321206Y330558D02*
X327000Y336352D01*
X360680Y417830D02*
X458270Y515420D01*
Y559000D01*
X815340Y205740D02*
Y260350D01*
X778510Y297180D02*
X815340Y260350D01*
X533000Y523000D02*
X628000D01*
X778510Y297180D02*
Y419100D01*
X789940Y306070D02*
Y422910D01*
Y306070D02*
X825680Y270330D01*
X715010Y458470D02*
X739140D01*
X715010Y471170D02*
X741680D01*
X739140Y458470D02*
X778510Y419100D01*
X741680Y471170D02*
X789940Y422910D01*
X482500Y624740D02*
X506730Y648970D01*
X497000Y559000D02*
X533000Y523000D01*
X321206Y602338D02*
X358868Y640000D01*
X310500Y657500D02*
X364500D01*
X310000Y658000D02*
X310500Y657500D01*
X358868Y640000D02*
X440000D01*
X471830Y671830D01*
X364500Y657500D02*
X365000Y657000D01*
X825000Y214000D02*
X825574Y214574D01*
Y216566D01*
X825680Y216672D01*
Y270330D01*
X837182Y215646D02*
Y293118D01*
X560324Y547878D02*
X560578Y547624D01*
X616662D01*
X506730Y648970D02*
X670560D01*
X580000Y534000D02*
X616550D01*
X616662Y547624D02*
X620980Y551942D01*
X621792D01*
X616550Y534000D02*
X628650Y546100D01*
X628000Y523000D02*
X651150Y546150D01*
X666850D01*
X829100Y301200D02*
X837182Y293118D01*
X829100Y301200D02*
Y312230D01*
X670560Y648970D02*
X687070Y665480D01*
D13*
X390000Y390000D02*
X519430Y519430D01*
X336000Y390000D02*
X390000D01*
X398700Y88100D02*
X422360Y111760D01*
X579120D01*
X722630Y255270D01*
Y436880D01*
X584800Y100800D02*
X734060Y250060D01*
Y436880D01*
X603790Y637000D02*
X637540Y603250D01*
X293370Y224910D02*
Y228092D01*
Y224910D02*
X296180Y222100D01*
X293370Y496690D02*
X296180Y493880D01*
X293370Y496690D02*
Y499872D01*
X273200Y294490D02*
X293370Y274320D01*
Y233584D02*
Y274320D01*
X300378Y228162D02*
Y278742D01*
X280820Y298300D02*
Y332590D01*
Y298300D02*
X300378Y278742D01*
X290980Y345290D02*
X295552Y349862D01*
X283360Y345290D02*
X290980D01*
X273200Y335130D02*
X283360Y345290D01*
X273200Y294490D02*
Y335130D01*
X280820Y570080D02*
X300378Y550522D01*
Y499942D02*
Y550522D01*
X280820Y570080D02*
Y604370D01*
X295081Y621171D02*
X295552Y621642D01*
X295081Y618847D02*
Y621171D01*
X293305Y617070D02*
X295081Y618847D01*
X283360Y617070D02*
X293305D01*
X273200Y606910D02*
X283360Y617070D01*
X273200Y566270D02*
Y606910D01*
Y566270D02*
X293370Y546100D01*
Y505364D02*
Y546100D01*
X473710Y659130D02*
X473775Y659065D01*
X537935D01*
X538000Y659000D01*
X285900Y337670D02*
X296060D01*
X310000Y243310D02*
Y311986D01*
X296060Y337670D02*
X303680Y345290D01*
X280820Y332590D02*
X285900Y337670D01*
X310829Y222571D02*
X311300Y222100D01*
X424100Y88100D02*
X436800Y100800D01*
X305970Y222571D02*
X310829D01*
X300378Y228162D02*
X305970Y222571D01*
X307236Y239880D02*
Y240546D01*
X310000Y243310D01*
Y311986D02*
X314348Y316334D01*
X320571D01*
X303680Y345290D02*
Y349608D01*
X303426Y349862D02*
X303680Y349608D01*
X321206Y316334D02*
X326794D01*
X321206Y320652D02*
Y322938D01*
X326794Y316334D02*
X341780Y331320D01*
X280820Y604370D02*
X285900Y609450D01*
X296060D01*
X310829Y494351D02*
X311300Y493880D01*
X305970Y494351D02*
X310829D01*
X300378Y499942D02*
X305970Y494351D01*
X307236Y511660D02*
X310000Y514424D01*
Y583766D01*
X314348Y588114D01*
X320571D01*
X321206D02*
X326794D01*
X321206Y592432D02*
Y594718D01*
X326794Y588114D02*
X341780Y603100D01*
X296060Y609450D02*
X303680Y617070D01*
Y621388D01*
X303426Y621642D02*
X303680Y621388D01*
X527000Y637000D02*
X603790D01*
X741680Y566420D02*
X763270D01*
X792480Y595630D01*
X750570Y614680D02*
X830081D01*
X857794Y612394D02*
X870400Y625000D01*
X832367Y612394D02*
X857794D01*
X830081Y614680D02*
X832367Y612394D01*
X436800Y100800D02*
X584800D01*
D65*
X829100Y437230D02*
D03*
Y412230D02*
D03*
Y387230D02*
D03*
Y362230D02*
D03*
Y337230D02*
D03*
D66*
Y312230D02*
D03*
D67*
X596540Y714490D02*
D03*
X845460D02*
D03*
X497480D02*
D03*
D68*
X551540D02*
D03*
X800460D02*
D03*
X452480D02*
D03*
D69*
X609040Y689490D02*
D03*
X539040D02*
D03*
X857960D02*
D03*
X787960D02*
D03*
X509980D02*
D03*
X439980D02*
D03*
D72*
X474140Y187910D02*
D03*
X469140D02*
D03*
X464140D02*
D03*
X459140D02*
D03*
X454140D02*
D03*
X474140Y182910D02*
D03*
X469140D02*
D03*
X464140D02*
D03*
X459140D02*
D03*
X454140D02*
D03*
X474140Y192910D02*
D03*
X469140D02*
D03*
X464140D02*
D03*
X459140D02*
D03*
X454140D02*
D03*
X857680Y187910D02*
D03*
X852680D02*
D03*
X847680D02*
D03*
X842680D02*
D03*
X837680D02*
D03*
X857680Y182910D02*
D03*
X852680D02*
D03*
X847680D02*
D03*
X842680D02*
D03*
X837680D02*
D03*
X857680Y192910D02*
D03*
X852680D02*
D03*
X847680D02*
D03*
X842680D02*
D03*
X837680D02*
D03*
D73*
X930000Y730000D02*
D03*
X50000Y50000D02*
D03*
Y730000D02*
D03*
X930000Y50000D02*
D03*
D75*
X697230Y269240D02*
Y415290D01*
X643890Y215900D02*
X697230Y269240D01*
X679241Y433279D02*
X697230Y415290D01*
X679241Y433279D02*
Y485646D01*
X637540Y209550D02*
X643890Y215900D01*
D79*
X688755Y495160D02*
X728980Y535385D01*
Y584200D02*
X746760Y601980D01*
X728980Y535385D02*
Y584200D01*
X637540Y603250D02*
Y606510D01*
X662580Y631550D01*
X637540Y603250D02*
X679241Y561549D01*
Y485646D02*
Y561549D01*
X595630Y511810D02*
X653077D01*
X679241Y485646D01*
X688755Y495160D01*
X750354D01*
X746760Y601980D02*
X767080D01*
D81*
X881300Y62700D02*
D03*
D82*
Y37300D02*
D03*
X855900Y62700D02*
D03*
Y37300D02*
D03*
X830500Y62700D02*
D03*
Y37300D02*
D03*
X805100Y62700D02*
D03*
Y37300D02*
D03*
X779700Y62700D02*
D03*
Y37300D02*
D03*
X754300Y62700D02*
D03*
Y37300D02*
D03*
X728900Y62700D02*
D03*
Y37300D02*
D03*
X703500Y62700D02*
D03*
Y37300D02*
D03*
X678100Y62700D02*
D03*
Y37300D02*
D03*
X652700Y62700D02*
D03*
Y37300D02*
D03*
X627300Y62700D02*
D03*
Y37300D02*
D03*
X601900Y62700D02*
D03*
Y37300D02*
D03*
X576500Y62700D02*
D03*
Y37300D02*
D03*
X551100Y62700D02*
D03*
Y37300D02*
D03*
X525700Y62700D02*
D03*
Y37300D02*
D03*
X500300Y62700D02*
D03*
Y37300D02*
D03*
X398700Y62700D02*
D03*
X424100Y37300D02*
D03*
Y62700D02*
D03*
X449500Y37300D02*
D03*
Y62700D02*
D03*
X474900Y37300D02*
D03*
Y62700D02*
D03*
X398700Y88100D02*
D03*
X424100D02*
D03*
X449500D02*
D03*
X474900D02*
D03*
X398700Y37300D02*
D03*
D83*
X203200Y432930D02*
D03*
Y161150D02*
D03*
Y297176D02*
D03*
Y568960D02*
D03*
D84*
Y482930D02*
D03*
Y211150D02*
D03*
Y347176D02*
D03*
Y618960D02*
D03*
D85*
X103200Y512930D02*
D03*
Y402930D02*
D03*
Y131150D02*
D03*
Y241150D02*
D03*
Y267176D02*
D03*
Y377176D02*
D03*
Y538960D02*
D03*
Y648960D02*
D03*
D86*
X845000Y523400D02*
D03*
Y548800D02*
D03*
X870400Y523400D02*
D03*
Y548800D02*
D03*
X845000Y574200D02*
D03*
X870400D02*
D03*
Y599600D02*
D03*
X845000D02*
D03*
X870400Y625000D02*
D03*
D87*
X845000D02*
D03*
D88*
X519430Y519430D02*
D03*
X668020Y309880D02*
D03*
X657860D02*
D03*
X637540Y603250D02*
D03*
X296180Y222100D02*
D03*
Y493880D02*
D03*
X360680Y407670D02*
D03*
X473710Y659130D02*
D03*
X491330Y195750D02*
D03*
X498950Y199560D02*
D03*
X152400Y76200D02*
D03*
X927100Y152400D02*
D03*
Y101600D02*
D03*
X736600Y635000D02*
D03*
X812800Y685800D02*
D03*
X228600Y482600D02*
D03*
X673100Y711200D02*
D03*
X736600Y25400D02*
D03*
X698500Y152400D02*
D03*
X927100Y304800D02*
D03*
X914400Y533400D02*
D03*
X800100Y101600D02*
D03*
X482600Y635000D02*
D03*
X469900Y457200D02*
D03*
X584200Y177800D02*
D03*
X88900Y660400D02*
D03*
X622300Y355600D02*
D03*
Y711200D02*
D03*
X152400Y685800D02*
D03*
X876300Y711200D02*
D03*
X139700Y101600D02*
D03*
X228600Y76200D02*
D03*
X736600Y685800D02*
D03*
X723900Y660400D02*
D03*
X279400Y685800D02*
D03*
X177800Y533400D02*
D03*
X749300Y508000D02*
D03*
X101600Y482600D02*
D03*
X266700Y558800D02*
D03*
X203200Y533400D02*
D03*
X165100Y203200D02*
D03*
X279400Y127000D02*
D03*
X508000Y482600D02*
D03*
X584200Y127000D02*
D03*
X571500Y508000D02*
D03*
X914400Y635000D02*
D03*
X469900Y711200D02*
D03*
X88900Y50800D02*
D03*
X952500Y660400D02*
D03*
X901700Y355600D02*
D03*
X165100Y101600D02*
D03*
X114300Y152400D02*
D03*
X127000Y482600D02*
D03*
X368300Y304800D02*
D03*
X127000Y635000D02*
D03*
X165100Y609600D02*
D03*
X190500Y508000D02*
D03*
X863600Y381000D02*
D03*
X660400Y431800D02*
D03*
X889000Y635000D02*
D03*
X749300Y101600D02*
D03*
X139700Y355600D02*
D03*
X254000Y685800D02*
D03*
X952500Y457200D02*
D03*
X800100Y152400D02*
D03*
X952500Y304800D02*
D03*
X596900Y355600D02*
D03*
X901700Y711200D02*
D03*
X825500Y508000D02*
D03*
X901700Y101600D02*
D03*
X381000Y482600D02*
D03*
X596900Y609600D02*
D03*
X127000Y685800D02*
D03*
X381000Y25400D02*
D03*
X165100Y406400D02*
D03*
X901700Y660400D02*
D03*
X939800Y330200D02*
D03*
X114300Y254000D02*
D03*
X508000Y635000D02*
D03*
X635000Y76200D02*
D03*
X939800Y381000D02*
D03*
X889000Y177800D02*
D03*
X469900Y609600D02*
D03*
X76200Y76200D02*
D03*
X165100Y152400D02*
D03*
X381000Y381000D02*
D03*
X927100Y558800D02*
D03*
X152400Y431800D02*
D03*
X711200Y127000D02*
D03*
X952500Y254000D02*
D03*
X914400Y279400D02*
D03*
X152400Y25400D02*
D03*
X889000Y533400D02*
D03*
X101600Y177800D02*
D03*
X88900Y711200D02*
D03*
X25400Y685800D02*
D03*
X241300Y711200D02*
D03*
X495300Y508000D02*
D03*
X177800Y431800D02*
D03*
X381000Y127000D02*
D03*
X279400Y381000D02*
D03*
X406400Y25400D02*
D03*
X127000Y177800D02*
D03*
X177800Y330200D02*
D03*
X101600Y431800D02*
D03*
X850900Y508000D02*
D03*
X520700D02*
D03*
X952500Y406400D02*
D03*
X177800Y635000D02*
D03*
X825500Y457200D02*
D03*
X228600Y381000D02*
D03*
X508000Y736600D02*
D03*
X952500Y711200D02*
D03*
X177800Y685800D02*
D03*
X622300Y660400D02*
D03*
X647700Y203200D02*
D03*
X914400Y228600D02*
D03*
X114300Y304800D02*
D03*
X393700Y152400D02*
D03*
X355600Y685800D02*
D03*
X241300Y406400D02*
D03*
X812800Y533400D02*
D03*
X228600D02*
D03*
X139700Y406400D02*
D03*
X838200Y584200D02*
D03*
X952500Y355600D02*
D03*
X508000Y533400D02*
D03*
X546100Y203200D02*
D03*
X482600Y25400D02*
D03*
X101600Y330200D02*
D03*
X800100Y558800D02*
D03*
X749300Y711200D02*
D03*
X482600Y736600D02*
D03*
X901700Y406400D02*
D03*
X190500Y457200D02*
D03*
X889000Y736600D02*
D03*
X177800Y127000D02*
D03*
X317500Y406400D02*
D03*
X457200Y685800D02*
D03*
X406400Y584200D02*
D03*
X812800D02*
D03*
X546100Y508000D02*
D03*
X685800Y76200D02*
D03*
X914400Y482600D02*
D03*
X406400D02*
D03*
X304800Y635000D02*
D03*
X647700Y406400D02*
D03*
X139700Y457200D02*
D03*
X863600Y482600D02*
D03*
X787400D02*
D03*
X698500Y558800D02*
D03*
X177800Y482600D02*
D03*
X533400Y431800D02*
D03*
X736600Y76200D02*
D03*
X584200Y431800D02*
D03*
X774700Y508000D02*
D03*
X762000Y76200D02*
D03*
X127000Y431800D02*
D03*
X876300Y304800D02*
D03*
Y101600D02*
D03*
X254000Y76200D02*
D03*
X635000Y482600D02*
D03*
X774700Y101600D02*
D03*
X508000Y76200D02*
D03*
X165100Y508000D02*
D03*
X342900Y711200D02*
D03*
X584200Y25400D02*
D03*
X914400D02*
D03*
X685800Y685800D02*
D03*
X508000Y431800D02*
D03*
X558800Y736600D02*
D03*
X939800Y533400D02*
D03*
X114300Y101600D02*
D03*
X152400Y635000D02*
D03*
X723900Y101600D02*
D03*
X457200Y431800D02*
D03*
X177800Y76200D02*
D03*
X952500Y101600D02*
D03*
X812800Y25400D02*
D03*
X787400D02*
D03*
X609600Y736600D02*
D03*
X660400Y127000D02*
D03*
X101600Y635000D02*
D03*
X203200Y76200D02*
D03*
X139700Y50800D02*
D03*
X114300Y355600D02*
D03*
X406400Y533400D02*
D03*
X838200Y736600D02*
D03*
X139700Y558800D02*
D03*
X304800Y685800D02*
D03*
X114300Y660400D02*
D03*
X304800Y127000D02*
D03*
X927100Y660400D02*
D03*
X558800Y431800D02*
D03*
X520700Y558800D02*
D03*
X927100Y406400D02*
D03*
X444500Y609600D02*
D03*
X495300Y457200D02*
D03*
X482600Y431800D02*
D03*
X431800Y76200D02*
D03*
X927100Y254000D02*
D03*
X165100Y558800D02*
D03*
X228600Y228600D02*
D03*
X571500Y203200D02*
D03*
X876300Y508000D02*
D03*
X495300Y609600D02*
D03*
X101600Y685800D02*
D03*
X520700Y711200D02*
D03*
X444500Y457200D02*
D03*
X381000Y76200D02*
D03*
X876300Y355600D02*
D03*
X774700Y50800D02*
D03*
X520700Y457200D02*
D03*
X774700Y152400D02*
D03*
X152400Y279400D02*
D03*
X368300Y152400D02*
D03*
X914400Y584200D02*
D03*
X431800Y25400D02*
D03*
X698500Y203200D02*
D03*
X165100Y304800D02*
D03*
X114300Y609600D02*
D03*
X685800Y381000D02*
D03*
X838200Y482600D02*
D03*
X647700Y355600D02*
D03*
X457200Y736600D02*
D03*
X254000Y381000D02*
D03*
X952500Y203200D02*
D03*
X660400Y482600D02*
D03*
X952500Y558800D02*
D03*
X152400Y584200D02*
D03*
X647700Y660400D02*
D03*
X139700Y609600D02*
D03*
X685800Y25400D02*
D03*
X723900Y203200D02*
D03*
X609600Y25400D02*
D03*
X939800Y431800D02*
D03*
X127000Y25400D02*
D03*
X914400Y330200D02*
D03*
X152400Y177800D02*
D03*
X457200Y584200D02*
D03*
X939800Y482600D02*
D03*
X889000Y279400D02*
D03*
X508000Y177800D02*
D03*
X558800Y25400D02*
D03*
X152400Y330200D02*
D03*
X419100Y152400D02*
D03*
X215900Y406400D02*
D03*
X177800Y279400D02*
D03*
X901700Y609600D02*
D03*
X533400Y584200D02*
D03*
X647700Y152400D02*
D03*
X165100Y457200D02*
D03*
X63500Y101600D02*
D03*
X622300Y406400D02*
D03*
X127000Y279400D02*
D03*
X711200Y584200D02*
D03*
X876300Y660400D02*
D03*
X749300Y406400D02*
D03*
X381000Y736600D02*
D03*
X355600Y76200D02*
D03*
X127000Y330200D02*
D03*
X635000Y431800D02*
D03*
X393700Y558800D02*
D03*
X292100Y406400D02*
D03*
X647700Y457200D02*
D03*
X152400Y228600D02*
D03*
X660400Y25400D02*
D03*
X25400D02*
D03*
X863600Y431800D02*
D03*
X88900Y101600D02*
D03*
X863600Y736600D02*
D03*
X393700Y50800D02*
D03*
X889000Y381000D02*
D03*
X812800Y76200D02*
D03*
X711200Y533400D02*
D03*
X673100Y152400D02*
D03*
X508000Y25400D02*
D03*
X393700Y711200D02*
D03*
X939800Y127000D02*
D03*
X685800Y177800D02*
D03*
X419100Y558800D02*
D03*
X711200Y177800D02*
D03*
X228600Y635000D02*
D03*
X114300Y558800D02*
D03*
X635000Y25400D02*
D03*
X939800Y584200D02*
D03*
X127000Y228600D02*
D03*
X952500Y152400D02*
D03*
X215900Y660400D02*
D03*
X114300Y50800D02*
D03*
X584200Y76200D02*
D03*
X76200Y25400D02*
D03*
X749300Y152400D02*
D03*
X533400Y736600D02*
D03*
X139700Y508000D02*
D03*
X660400Y76200D02*
D03*
X368300Y711200D02*
D03*
X901700Y508000D02*
D03*
X889000Y482600D02*
D03*
X762000Y330200D02*
D03*
X914400Y76200D02*
D03*
X749300Y203200D02*
D03*
X939800Y635000D02*
D03*
X25400Y76200D02*
D03*
X533400D02*
D03*
X584200Y736600D02*
D03*
X571500Y609600D02*
D03*
X762000Y25400D02*
D03*
X177800Y177800D02*
D03*
X393700Y101600D02*
D03*
X101600Y76200D02*
D03*
X762000Y177800D02*
D03*
X101600Y25400D02*
D03*
X685800Y584200D02*
D03*
X711200Y76200D02*
D03*
X342900Y50800D02*
D03*
X101600Y736600D02*
D03*
X596900Y152400D02*
D03*
X635000Y177800D02*
D03*
X152400Y482600D02*
D03*
X723900Y711200D02*
D03*
X520700Y355600D02*
D03*
X215900Y457200D02*
D03*
X330200Y685800D02*
D03*
X533400Y330200D02*
D03*
X673100Y101600D02*
D03*
X812800Y736600D02*
D03*
X203200Y228600D02*
D03*
X952500Y609600D02*
D03*
X457200Y25400D02*
D03*
X914400Y127000D02*
D03*
X571500Y50800D02*
D03*
X50800Y685800D02*
D03*
X812800Y381000D02*
D03*
Y431800D02*
D03*
X508000Y330200D02*
D03*
X774700Y711200D02*
D03*
X266700Y406400D02*
D03*
X939800Y685800D02*
D03*
X901700Y304800D02*
D03*
X635000Y685800D02*
D03*
X939800Y279400D02*
D03*
X825500Y711200D02*
D03*
X863600Y584200D02*
D03*
X342900Y101600D02*
D03*
X355600Y736600D02*
D03*
X901700Y558800D02*
D03*
X558800Y685800D02*
D03*
X685800Y127000D02*
D03*
X546100Y457200D02*
D03*
X393700Y508000D02*
D03*
X190500Y406400D02*
D03*
X508000Y584200D02*
D03*
X546100Y558800D02*
D03*
X927100Y609600D02*
D03*
X711200Y431800D02*
D03*
X330200Y127000D02*
D03*
X571500Y711200D02*
D03*
X139700Y304800D02*
D03*
X609600Y76200D02*
D03*
X203200Y381000D02*
D03*
X76200Y685800D02*
D03*
X660400D02*
D03*
X711200Y25400D02*
D03*
X431800Y736600D02*
D03*
X241300Y660400D02*
D03*
X342900Y406400D02*
D03*
X419100Y508000D02*
D03*
X889000Y330200D02*
D03*
X355600Y127000D02*
D03*
X304800Y76200D02*
D03*
X114300Y203200D02*
D03*
X431800Y533400D02*
D03*
X215900Y508000D02*
D03*
X101600Y584200D02*
D03*
X927100Y355600D02*
D03*
X787400Y736600D02*
D03*
X558800Y482600D02*
D03*
X889000Y584200D02*
D03*
X139700Y152400D02*
D03*
X228600Y279400D02*
D03*
X139700Y203200D02*
D03*
X406400Y127000D02*
D03*
X876300Y457200D02*
D03*
X825500Y558800D02*
D03*
X533400Y482600D02*
D03*
X914400Y431800D02*
D03*
X660400Y736600D02*
D03*
X749300Y660400D02*
D03*
X533400Y25400D02*
D03*
X114300Y457200D02*
D03*
X266700Y660400D02*
D03*
X546100Y152400D02*
D03*
X431800Y127000D02*
D03*
X127000Y76200D02*
D03*
X177800Y228600D02*
D03*
X647700Y711200D02*
D03*
X850900Y457200D02*
D03*
X228600Y685800D02*
D03*
X901700Y457200D02*
D03*
X508000Y127000D02*
D03*
X609600Y431800D02*
D03*
X330200Y76200D02*
D03*
X317500Y101600D02*
D03*
X241300Y558800D02*
D03*
X889000Y431800D02*
D03*
X127000Y584200D02*
D03*
X952500Y508000D02*
D03*
X876300Y406400D02*
D03*
X927100Y508000D02*
D03*
X914400Y381000D02*
D03*
X381000Y685800D02*
D03*
X165100Y355600D02*
D03*
X241300Y101600D02*
D03*
X406400Y76200D02*
D03*
X571500Y660400D02*
D03*
X165100Y50800D02*
D03*
X838200Y25400D02*
D03*
X203200Y685800D02*
D03*
Y330200D02*
D03*
X215900Y254000D02*
D03*
X177800Y584200D02*
D03*
X927100Y457200D02*
D03*
X787400Y76200D02*
D03*
X774700Y457200D02*
D03*
X850900Y406400D02*
D03*
X254000Y127000D02*
D03*
X482600Y685800D02*
D03*
X558800Y76200D02*
D03*
X486410Y220980D02*
D03*
Y227330D02*
D03*
Y233680D02*
D03*
Y240030D02*
D03*
X493680Y264160D02*
D03*
Y270510D02*
D03*
Y276860D02*
D03*
X487680Y334010D02*
D03*
X480060D02*
D03*
X545990Y370000D02*
D03*
X540000Y10000D02*
D03*
X520000D02*
D03*
X486410Y154940D02*
D03*
Y119380D02*
D03*
Y127000D02*
D03*
Y135890D02*
D03*
Y142240D02*
D03*
X431800Y146050D02*
D03*
X486410Y148590D02*
D03*
X498950Y176700D02*
D03*
X491330Y180510D02*
D03*
X498950Y184320D02*
D03*
X491330Y188130D02*
D03*
X498950Y191940D02*
D03*
X440000Y10000D02*
D03*
X460000D02*
D03*
X480000D02*
D03*
X500000D02*
D03*
X545990Y377500D02*
D03*
Y385000D02*
D03*
X80000Y480000D02*
D03*
Y380000D02*
D03*
Y400000D02*
D03*
Y460000D02*
D03*
Y420000D02*
D03*
Y440000D02*
D03*
X336000Y390000D02*
D03*
X422000Y437000D02*
D03*
X408000Y451000D02*
D03*
X368300Y463550D02*
D03*
X336550Y469900D02*
D03*
X400000Y470000D02*
D03*
Y490000D02*
D03*
X311300Y493880D02*
D03*
X444500Y488950D02*
D03*
X469900Y527050D02*
D03*
X458270Y559000D02*
D03*
X497000D02*
D03*
X568490Y377500D02*
D03*
X561230D02*
D03*
X553610D02*
D03*
X576110D02*
D03*
X583730D02*
D03*
X605000D02*
D03*
X625000D02*
D03*
X553610Y385000D02*
D03*
X568490D02*
D03*
X561230D02*
D03*
X576110D02*
D03*
X583730D02*
D03*
X596000Y394000D02*
D03*
X586000Y404000D02*
D03*
X565000Y405000D02*
D03*
X613410Y193040D02*
D03*
X611790Y264160D02*
D03*
Y270510D02*
D03*
Y276860D02*
D03*
X598170Y334010D02*
D03*
X605790D02*
D03*
X553610Y370000D02*
D03*
X568490D02*
D03*
X561230D02*
D03*
X576110D02*
D03*
X583730D02*
D03*
X637540Y209550D02*
D03*
X643890Y215900D02*
D03*
X679450Y285750D02*
D03*
X711200Y302260D02*
D03*
X740410Y308610D02*
D03*
X711200Y339090D02*
D03*
X740410Y344170D02*
D03*
X642500Y372500D02*
D03*
X874870Y195750D02*
D03*
X882490Y199560D02*
D03*
X815340Y205740D02*
D03*
X825000Y214000D02*
D03*
X837182Y215646D02*
D03*
X869950Y220980D02*
D03*
Y227330D02*
D03*
Y233680D02*
D03*
Y240030D02*
D03*
X850000Y255000D02*
D03*
X870000D02*
D03*
X890000D02*
D03*
X970000Y200000D02*
D03*
Y220000D02*
D03*
X955000Y230000D02*
D03*
X940000D02*
D03*
X970000Y240000D02*
D03*
X925000Y240000D02*
D03*
X910000Y252500D02*
D03*
X970000Y260000D02*
D03*
Y280000D02*
D03*
Y300000D02*
D03*
Y320000D02*
D03*
Y340000D02*
D03*
Y360000D02*
D03*
Y380000D02*
D03*
Y400000D02*
D03*
Y420000D02*
D03*
X560324Y547878D02*
D03*
X580000Y534000D02*
D03*
X570230Y556260D02*
D03*
X584200Y440690D02*
D03*
X588010Y603250D02*
D03*
X594360Y541020D02*
D03*
X595630Y511810D02*
D03*
X609600Y553720D02*
D03*
X617220Y440690D02*
D03*
X715010Y436880D02*
D03*
X741680D02*
D03*
X722630D02*
D03*
X734060D02*
D03*
X715010Y458470D02*
D03*
Y471170D02*
D03*
X650000Y475000D02*
D03*
X777240Y477520D02*
D03*
X679241Y485646D02*
D03*
X668020Y485648D02*
D03*
X750354Y495160D02*
D03*
X777240Y495300D02*
D03*
X649000Y512000D02*
D03*
X628650Y546100D02*
D03*
X666850Y546150D02*
D03*
X621792Y551942D02*
D03*
X741680Y566420D02*
D03*
X767080Y601980D02*
D03*
X560000Y770000D02*
D03*
X580000D02*
D03*
X600000D02*
D03*
X609600Y607060D02*
D03*
X620000Y770000D02*
D03*
X750570Y614680D02*
D03*
Y622300D02*
D03*
X767080Y629920D02*
D03*
X662580Y631550D02*
D03*
X672672D02*
D03*
X637540Y632460D02*
D03*
X687070Y665480D02*
D03*
X701040D02*
D03*
X640000Y770000D02*
D03*
X660000D02*
D03*
X700000D02*
D03*
X680000D02*
D03*
X720000D02*
D03*
X760000D02*
D03*
X740000D02*
D03*
X780000D02*
D03*
X970000Y440000D02*
D03*
Y460000D02*
D03*
Y480000D02*
D03*
Y500000D02*
D03*
Y520000D02*
D03*
Y540000D02*
D03*
Y560000D02*
D03*
Y580000D02*
D03*
X792480Y595630D02*
D03*
X784860Y629920D02*
D03*
X824230Y640080D02*
D03*
X820000Y770000D02*
D03*
X860000D02*
D03*
X800000D02*
D03*
X900000D02*
D03*
X840000D02*
D03*
X880000D02*
D03*
X970000Y600000D02*
D03*
Y620000D02*
D03*
Y640000D02*
D03*
Y660000D02*
D03*
Y680000D02*
D03*
Y700000D02*
D03*
Y720000D02*
D03*
Y740000D02*
D03*
Y760000D02*
D03*
X920000Y770000D02*
D03*
X940000D02*
D03*
X960000D02*
D03*
X10000Y80000D02*
D03*
Y100000D02*
D03*
X20000Y110000D02*
D03*
X40000D02*
D03*
X60000Y112500D02*
D03*
X72500Y122500D02*
D03*
X80000Y140000D02*
D03*
Y160000D02*
D03*
X20000Y10000D02*
D03*
X40000D02*
D03*
X60000D02*
D03*
X80000D02*
D03*
X100000D02*
D03*
X120000D02*
D03*
X10000Y20000D02*
D03*
Y40000D02*
D03*
Y60000D02*
D03*
X140000Y10000D02*
D03*
X300000D02*
D03*
X220000D02*
D03*
X280000D02*
D03*
X180000D02*
D03*
X160000D02*
D03*
X200000D02*
D03*
X240000D02*
D03*
X260000D02*
D03*
X175000Y25000D02*
D03*
X254000Y50800D02*
D03*
X80000Y180000D02*
D03*
Y200000D02*
D03*
Y220000D02*
D03*
Y240000D02*
D03*
Y260000D02*
D03*
Y280000D02*
D03*
Y300000D02*
D03*
Y320000D02*
D03*
Y340000D02*
D03*
Y360000D02*
D03*
X311300Y222100D02*
D03*
X307236Y239880D02*
D03*
X240030Y264160D02*
D03*
X280670Y267970D02*
D03*
X270510D02*
D03*
X280670Y276860D02*
D03*
X270510D02*
D03*
X310030Y375770D02*
D03*
X292250Y300840D02*
D03*
X299870D02*
D03*
Y309730D02*
D03*
X292250D02*
D03*
X299870Y318620D02*
D03*
X292250D02*
D03*
Y327510D02*
D03*
X299870D02*
D03*
X303426Y349862D02*
D03*
X295552D02*
D03*
X320000Y10000D02*
D03*
X340000D02*
D03*
X360000D02*
D03*
X380000D02*
D03*
X400000D02*
D03*
X420000D02*
D03*
X387350Y177800D02*
D03*
X420370Y189230D02*
D03*
X432000Y208000D02*
D03*
X442000Y214000D02*
D03*
X453643Y215646D02*
D03*
X387500Y307500D02*
D03*
X395000D02*
D03*
X402500D02*
D03*
X349000Y312000D02*
D03*
X402500Y315120D02*
D03*
X395000D02*
D03*
X349000Y320000D02*
D03*
X402500Y322740D02*
D03*
X395000D02*
D03*
X321206Y322938D02*
D03*
X387500Y325000D02*
D03*
X395000Y330000D02*
D03*
X402500D02*
D03*
X321206Y330558D02*
D03*
X341780Y331320D02*
D03*
X387500Y332500D02*
D03*
X402500Y337500D02*
D03*
X395000D02*
D03*
Y345000D02*
D03*
X402500D02*
D03*
X317650Y375770D02*
D03*
X234950Y322580D02*
D03*
Y337820D02*
D03*
X10000Y700000D02*
D03*
Y720000D02*
D03*
Y740000D02*
D03*
Y760000D02*
D03*
X60000Y770000D02*
D03*
X40000D02*
D03*
X100000D02*
D03*
X20000D02*
D03*
X80000D02*
D03*
X120000D02*
D03*
X80000Y500000D02*
D03*
Y520000D02*
D03*
Y540000D02*
D03*
Y560000D02*
D03*
Y580000D02*
D03*
X280670Y539750D02*
D03*
X270510D02*
D03*
X280670Y548640D02*
D03*
X270510D02*
D03*
X292608Y572516D02*
D03*
Y581406D02*
D03*
X80000Y600000D02*
D03*
Y620000D02*
D03*
X77500Y640000D02*
D03*
X72500Y657500D02*
D03*
X60000Y667500D02*
D03*
X20000Y670000D02*
D03*
X40000D02*
D03*
X10000Y680000D02*
D03*
X292608Y590296D02*
D03*
X236220Y594360D02*
D03*
X292608Y599186D02*
D03*
X236220Y609600D02*
D03*
X295552Y621642D02*
D03*
X160000Y770000D02*
D03*
X260000D02*
D03*
X300000D02*
D03*
X240000D02*
D03*
X180000D02*
D03*
X280000D02*
D03*
X140000D02*
D03*
X200000D02*
D03*
X220000D02*
D03*
X400000Y510000D02*
D03*
X307236Y511660D02*
D03*
X400000Y530000D02*
D03*
Y550000D02*
D03*
Y570000D02*
D03*
X300228Y572516D02*
D03*
Y581406D02*
D03*
X349000Y584000D02*
D03*
X400000Y590000D02*
D03*
X300228Y590296D02*
D03*
X349000Y591000D02*
D03*
X321206Y594718D02*
D03*
X300228Y599186D02*
D03*
X321206Y602338D02*
D03*
X341780Y603100D02*
D03*
X400000Y610000D02*
D03*
X303426Y621642D02*
D03*
X400000Y630000D02*
D03*
X310030Y647550D02*
D03*
X317650D02*
D03*
X365000Y657000D02*
D03*
X310000Y658000D02*
D03*
X400000Y670000D02*
D03*
Y690000D02*
D03*
Y710000D02*
D03*
Y730000D02*
D03*
Y750000D02*
D03*
X360000Y770000D02*
D03*
X380000D02*
D03*
X320000D02*
D03*
X340000D02*
D03*
X400000D02*
D03*
X532000Y627000D02*
D03*
X438000Y628000D02*
D03*
X527000Y637000D02*
D03*
X400000Y650000D02*
D03*
X538000Y659000D02*
D03*
X420000Y770000D02*
D03*
X440000D02*
D03*
X460000D02*
D03*
X520000D02*
D03*
X480000D02*
D03*
X500000D02*
D03*
X540000D02*
D03*
X490000Y405000D02*
D03*
X530000D02*
D03*
X545000D02*
D03*
X470000D02*
D03*
X510000D02*
D03*
X450000Y410000D02*
D03*
X436000Y423000D02*
D03*
X680000Y10000D02*
D03*
X620000D02*
D03*
X600000D02*
D03*
X580000D02*
D03*
X640000D02*
D03*
X560000D02*
D03*
X660000D02*
D03*
X700000D02*
D03*
X740000D02*
D03*
X800000D02*
D03*
X760000D02*
D03*
X720000D02*
D03*
X780000D02*
D03*
X803910Y189230D02*
D03*
X726440Y193040D02*
D03*
X820000Y10000D02*
D03*
X840000D02*
D03*
X860000D02*
D03*
X869950Y119380D02*
D03*
Y127000D02*
D03*
Y135890D02*
D03*
Y142240D02*
D03*
X815340Y146050D02*
D03*
X869950Y148590D02*
D03*
Y154940D02*
D03*
X874870Y188130D02*
D03*
X960000Y10000D02*
D03*
X900000D02*
D03*
X940000D02*
D03*
X920000D02*
D03*
X880000D02*
D03*
X970000Y20000D02*
D03*
Y40000D02*
D03*
Y60000D02*
D03*
Y80000D02*
D03*
Y100000D02*
D03*
Y120000D02*
D03*
Y140000D02*
D03*
Y160000D02*
D03*
X882490Y176700D02*
D03*
X970000Y180000D02*
D03*
X874870Y180510D02*
D03*
X882490Y184320D02*
D03*
Y191940D02*
D03*
D89*
X293370Y232410D02*
D03*
Y228092D02*
D03*
Y499872D02*
D03*
Y504190D02*
D03*
X321206Y316334D02*
D03*
Y320652D02*
D03*
Y592432D02*
D03*
Y588114D02*
D03*
D90*
X293372Y230251D02*
D03*
Y502031D02*
D03*
X321208Y318493D02*
D03*
X321208Y590273D02*
D03*
M02*
