M48
;Layer_Color=9474304
;FILE_FORMAT=4:4
METRIC,LZ
;TYPE=PLATED
T01F00S00C0.2000
T02F00S00C0.3000
T03F00S00C0.9000
T04F00S00C1.0000
T05F00S00C1.1000
T06F00S00C1.5000
T07F00S00C1.7000
T08F00S00C3.0000
%
T01
X0029225Y0030084
X0029987
Y0030973
X0029225
Y0031862
X0029987
Y0032751
X0029225
X0045414Y0019291
Y0018791
Y0018291
X0045914
Y0018791
X0046414
X0046914
Y0018291
X0046414
Y0019291
X0046914
X0047414
Y0018791
Y0018291
X0045914Y0019291
X0083768
Y0018791
Y0018291
X0084268
Y0018791
X0084768
X0085268
Y0018291
X0084768
Y0019291
X0085268
X0085768
Y0018791
Y0018291
X0084268Y0019291
X00300228Y00572516
X00292608
Y00581406
X00300228
Y00590296
X00292608
Y00599186
X00300228
T02
X0002Y0001
X0004
X0006
X0008
X000762Y000254
X001016
X001Y0001
X0012
X0014
X0016
X0018
X00175Y00025
X001524Y000254
X00127
X001397Y000508
X001143
X000889
X000762Y000762
X001016
X00127
X001524
X001778
X002032
X002286
X00254
Y000508
X0026Y0001
X0024
X0022
X002
X001651Y000508
Y001016
X001397
X001143
X000889
X000635
X0006Y001125
X0004Y0011
X0002
X0001Y001
Y0008
X000254Y000762
X0001Y0006
Y0004
Y0002
X000254Y000254
X000725Y001225
X0008Y0014
Y0016
Y0018
Y002
Y0022
Y0024
Y0026
Y0028
Y003
Y0032
Y0034
Y0036
Y0038
X001143Y003556
X001397
X001651
X001778Y003302
X001524
X00127
X001016
X001143Y003048
X001397
X001651
X001524Y002794
X001778
X00127
X001143Y00254
X00127Y002286
X001524
X001778
X002032
X002286
X002159Y00254
X0024003Y0026416
X002286Y002794
X0027051Y0027686
Y0026797
X0028067
Y0027686
X00307236Y0023988
X003113Y002221
X0029618
X003048Y00127
X002794
X00254
X002413Y001016
X003175
X003429
X003556Y000762
X00381
X003937Y000508
X00381Y000254
X0038Y0001
X0036
X0034
X0032
X003
X0028
X003048Y000762
X003302
X003429Y000508
X003302Y00127
X003556
X00381
X003937Y001524
X003683
X0038735Y001778
X003937Y001016
X00395Y003075
X003875
X00395Y0031512
Y0032274
Y0033
Y003375
Y00345
X003875Y003325
Y00325
X003683Y003048
X00349Y00312
Y0032
X0034178Y0033132
X00321206Y00330558
Y00322938
X00303426Y00349862
X00295552
X0031003Y0037577
X0031765
X00336Y0039
X00381Y00381
X002794
X00254
X002286
X002032
Y003302
X0023495Y0032258
Y0033782
X001651Y002032
X001397
X001143
X001016Y001778
X00127
X001524
X001778
X001651Y001524
X001397
X001143
X001778Y00127
X004064
X004318
Y0014605
X004191Y001524
X0042037Y0018923
X00432Y00208
X00442Y00214
X00453643Y00215646
X0048641Y0022098
Y0022733
Y0023368
Y0024003
X0049368Y0026416
Y0027051
Y0027686
X0048768Y0033401
X0048006
X00508Y003302
X005334
X005207Y003556
X0054599Y0037
Y003775
Y00385
X0055361
Y003775
Y0037
X0056123
X0056849
Y003775
X0056123
Y00385
X0056849
X0057611
Y003775
Y0037
X0058373
Y003775
Y00385
X00596Y00394
X00605Y003775
X00625
X006425Y003725
X006477Y003556
X006223
X005969
X0059817Y0033401
X0060579
X0061179Y0027686
Y0027051
Y0026416
X0061341Y0019304
X00635Y001778
X0063754Y0020955
X0064389Y002159
X006477Y002032
X006985
X007239
X0072644Y0019304
X007112Y001778
X006858
X006985Y001524
X006731
X006477
X006604Y00127
X006858
X007112
X007239Y001016
X007493
X007747
X00762Y000762
X007366
X007112
X006858
X006604
X00635
X006096
X005842
X005588
X005334
X00508
Y000254
X005Y0001
X0048
X004826Y000254
X004572
X0046Y0001
X0044
X0042
X004
X004064Y000254
X004318
Y000762
X004064
X0048641Y0011938
Y00127
Y0013589
Y0014224
Y0014859
Y0015494
X0049133Y0018051
Y0018813
Y0019575
X0049895Y0019956
Y0019194
Y0018432
Y001767
X00508Y001778
Y00127
X005461Y001524
Y002032
X005715
X005842Y001778
X005969Y001524
X005842Y00127
X005715Y000508
X005842Y000254
X0058Y0001
X006
X0062
X0064
X0066
X006604Y000254
X006858
X0068Y0001
X007
X0072
X0074
X007366Y000254
X00762
X0076Y0001
X0078
X007874Y000254
X007747Y000508
X007874Y000762
X007747Y001524
X007493
X00762Y001778
X007493Y002032
X0074041Y0030861
X007112Y0030226
Y0033909
X0074041Y0034417
X00762Y003302
X0066802Y0030988
X0065786
X0067945Y0028575
X006858Y00381
X006731Y001016
X00635Y000254
X006096
X005588
X0056Y0001
X0054
X0052
X005334Y000254
X007112
X004025Y003075
Y0031512
Y0032274
Y0033
Y003375
Y00345
X008128Y00381
X008636
X00889
X009144
X009398
X0097Y0038
Y0036
Y0034
Y0032
Y003
Y0028
Y0026
Y0024
Y0022
Y002
Y0018
Y0016
Y0014
Y0012
Y001
X009525Y001016
X009271
X009017
X008763
X0086995Y0011938
Y00127
Y0013589
Y0014224
Y0014859
Y0015494
X0087487Y0018051
Y0018813
Y0019575
X0088249Y0019956
Y0019194
Y0018432
Y001767
X00889Y001778
X0086995Y0022098
Y0022733
Y0023368
Y0024003
X0087Y00255
X0089
X0091Y002525
X009271Y00254
X00925Y0024
X009144Y002286
X0094Y0023
X00955
X009525Y00254
X009398Y002794
X009144
X00889
X008763Y003048
X009017
X009271
X009525
X009398Y003302
X009144
X00889
X009017Y003556
X008763
X009271
X009525
Y002032
Y001524
X009271
X009398Y00127
X009144
Y000762
Y000254
X0092Y0001
X009
X0088
X0086
X0084
X008382Y000254
X008128
X0082Y0001
X008
X008128Y000762
X008001Y001016
Y001524
X0081534Y0014605
X0080391Y0018923
X0081534Y0020574
X00825Y00214
X00837182Y00215646
X0085Y00255
X0097Y0008
Y0006
Y0004
Y0002
X0096Y0001
X0094
X009525Y004064
X0097Y004
Y0042
Y0044
Y0046
Y0048
Y005
Y0052
Y0054
Y0056
X009525Y005588
X009271
X009017
X009144Y005334
X00889
X008763Y00508
X008509
X008255
X008128Y005334
X008001Y005588
X008255
X008382Y005842
X008128
X008636
X00889
X009144
X009398
X0097Y0058
Y006
Y0062
Y0064
Y0066
X009525Y006604
X009271
X009017
X008763
X00889Y00635
X009144
X009398
X009525Y006096
X009271
X009017
Y007112
X008763
X00889Y007366
X008636
X008382
X008128
X008255Y007112
X008128Y006858
X0082423Y0064008
X0082Y0077
X008
X0084
X0086
X0088
X009
X0092
X0094
X0096
X0097Y0076
Y0074
Y0072
Y007
Y0068
X009398Y006858
X009525Y007112
X009398Y005334
X009525Y00508
X009271
X009017
X009144Y004826
X009398
X009525Y004572
X009271
X009017
X008763
X008509
X008255
X008382Y004826
X008636
X00889
Y004318
X008636
X008763Y004064
X009017
X009271
X009398Y004318
X009144
X008509Y004064
X008128Y004318
X007747Y004572
X0077724Y0047752
X007874Y004826
X0077724Y004953
X007747Y00508
X007493
X00750354Y0049516
X0071501Y0047117
Y0045847
Y0043688
X0072263
X0073406
X0074168
X007112Y004318
X006604
X00635
X006096
X0061722Y0044069
X005842
Y004318
X005588
X005334
X00508
X004826
X004572
X0045Y0041
X0047Y00405
X0049
X0051
X0053
X00545
X00565
X00586Y00404
X006223Y004064
X006477
Y004572
X0065Y00475
X006604Y004826
X0066802Y00485648
X00679241Y00485646
X00635Y004826
X00649Y00512
X0066685Y0054615
X0062865Y005461
X00621792Y00551942
X006096Y0055372
X0059436Y0054102
X0058Y00534
X0057023Y0055626
X00560324Y00547878
X005461Y005588
X005207
X00497Y00559
X00508Y005842
X005334
X00532Y00627
X00527Y00637
X00508Y00635
X004826
X0047371Y0065913
X004826Y006858
X004572
X004699Y007112
X004826Y007366
X00508
X005334
X005588
X005842
X006096
X006223Y007112
X006477
X006731
X006858Y006858
X0068707Y0066548
X0070104
X007239Y006604
X007493
X007366Y00635
X0075057Y006223
Y0061468
X0076708Y0060198
Y0062992
X0078486
X0079248Y0059563
X0074168Y0056642
X007112Y005842
X006858
X006985Y005588
X007112Y005334
X00672672Y0063155
X0066258
X0063754Y0063246
Y0060325
X006096Y0060706
X005969Y006096
X0058801Y0060325
X005715Y006096
Y006604
X00538Y00659
X005588Y006858
X005715Y007112
X005207
X0052Y0077
X005
X0048
X0046
X0044
X0042
X004
Y0075
Y0073
Y0071
Y0069
Y0067
Y0065
Y0063
Y0061
Y0059
X004064Y005842
X004Y0057
Y0055
Y0053
X004064Y005334
X004318
X004191Y005588
X0045827Y00559
X004572Y005842
X004699Y006096
X004445
X00438Y00628
X004953Y006096
X00508Y005334
X0051943Y0051943
X005207Y00508
X004953
X00508Y004826
X005334
X005588
X005715Y00508
X005461
Y004572
X005207
X004953
X004699
X004445
Y0048895
X004064Y004826
X004Y0049
Y0047
X00408Y00451
X00422Y00437
X00436Y00423
X004191Y00508
X004Y0051
X004699Y0052705
X0059563Y0051181
X006223Y006604
X006477
X00635Y006858
X006604
Y007366
X0066Y0077
X0064
X0062
X006
X0058
X0056
X0054
X004572Y007366
X004318
X0068Y0077
X007
X0072
X0074
X0076
X0078
X007874Y007366
X007747Y007112
X007493
X007239
X007366Y006858
X007493Y004064
X0036068Y0040767
X003429Y004064
X003175
X002921
X002667
X002413
X002159
X001905
X001651
X001397
X001524Y004318
X001778
X001905Y004572
X001651
X001397
X001143
X0008Y0046
Y0044
Y0042
Y004
X001016Y004318
X00127
Y004826
X001016
X0008Y0048
Y005
Y0052
Y0054
Y0056
Y0058
Y006
Y0062
X000775Y0064
X000725Y006575
X000889Y006604
X001143
X00127Y00635
X001524
X001778
X001651Y006096
X001397
X001143
X001016Y00635
Y006858
X00127
X001524
X001778
X002032
X002286
X00254
X002794
X003048
X003302
X003556
X00381
X003937Y007112
X003683
X003429
X003556Y007366
X00381
X0038Y0077
X0036
X0034
X0032
X003
X0028
X0026
X0024
X0022
X002
X0018
X0016
X0014
X0012
X001
X0008
X0006
X0004
X0002
X0001Y0076
Y0074
Y0072
Y007
Y0068
X0002Y0067
X0004
X0006Y006675
X000508Y006858
X000254
X000762
X000889Y007112
X001016Y007366
Y005842
X00127
X001524
X001778
X001651Y005588
X001397
X001143
X001397Y00508
X001651
X001905
X002159
X002286Y004826
X002159Y004572
X001778Y004826
X001524
X001778Y005334
X002032
X002286
X002413Y005588
X002667
X0027051Y0054864
Y0053975
X0028067
Y0054864
X00307236Y0051166
X003113Y0049388
X0029618
X0033655Y004699
X003683Y0046355
X00381Y004826
X003937Y00508
Y005588
X00349Y00584
Y00591
X0034178Y006031
X00321206Y00602338
Y00594718
X00303426Y00621642
X00295552
X003048Y00635
X0031003Y0064755
X0031765
X0031Y00658
X002667Y006604
X002413
X002159
X002286Y00635
X0023622Y006096
Y0059436
X002413Y007112
X00365Y00657
T03
X003987Y000373
Y000627
X004241
Y000373
X004495
Y000627
X004749
X005003
X005257
X005511
X005765
X006019
X006273
X006527
X006781
X007035
X007289
X007543
X007797
Y000373
X007543
X007289
X007035
X006781
X006527
X006273
X006019
X005765
X005511
X005257
X005003
X004749
Y000881
X004495
X004241
X003987
X008051Y000627
X008305
X008559
X008813
Y000373
X008559
X008305
X008051
X008291Y0031223
Y0033723
Y0036223
Y0038723
Y0041223
Y0043723
T04
X001032Y0013115
Y0024115
Y00267176
Y00377176
X0080046Y0071449
X0084546
X0059654
X0055154
X0049748
X0045248
X001032Y0064896
Y0053896
Y0051293
Y0040293
T05
X00845Y005234
Y005488
X008704
Y005234
Y005742
X00845
Y005996
X008704
Y00625
X00845
T06
X0085796Y0068949
X0078796
X0060904
X0053904
X0050998
X0043998
T07
X002032Y0016115
Y0021115
Y00297176
Y00347176
Y0043293
Y0048293
Y0056896
Y0061896
T08
X0005Y0005
X0093
Y0073
X0005
M30
