G04*
G04 #@! TF.GenerationSoftware,Altium Limited,Altium Designer,24.1.2 (44)*
G04*
G04 Layer_Color=8421504*
%FSLAX44Y44*%
%MOMM*%
G71*
G04*
G04 #@! TF.SameCoordinates,2EF6C2FC-EFCF-4523-B91F-EB5A1425F999*
G04*
G04*
G04 #@! TF.FilePolarity,Positive*
G04*
G01*
G75*
%ADD17R,0.9039X2.9039*%
%ADD18R,0.9000X1.0000*%
%ADD19R,1.4200X2.1300*%
G04:AMPARAMS|DCode=20|XSize=0.6mm|YSize=0.24mm|CornerRadius=0.12mm|HoleSize=0mm|Usage=FLASHONLY|Rotation=90.000|XOffset=0mm|YOffset=0mm|HoleType=Round|Shape=RoundedRectangle|*
%AMROUNDEDRECTD20*
21,1,0.6000,0.0000,0,0,90.0*
21,1,0.3600,0.2400,0,0,90.0*
1,1,0.2400,0.0000,0.1800*
1,1,0.2400,0.0000,-0.1800*
1,1,0.2400,0.0000,-0.1800*
1,1,0.2400,0.0000,0.1800*
%
%ADD20ROUNDEDRECTD20*%
%ADD21R,1.9000X1.5000*%
%ADD22C,1.5240*%
%ADD23R,1.0581X1.3621*%
%ADD24R,0.7500X0.9000*%
%ADD25R,5.6000X1.7000*%
%ADD26R,0.9000X0.7500*%
%ADD27R,0.2540X0.2540*%
%ADD28R,0.8311X0.2425*%
G04:AMPARAMS|DCode=29|XSize=0.8311mm|YSize=0.2425mm|CornerRadius=0.1212mm|HoleSize=0mm|Usage=FLASHONLY|Rotation=0.000|XOffset=0mm|YOffset=0mm|HoleType=Round|Shape=RoundedRectangle|*
%AMROUNDEDRECTD29*
21,1,0.8311,0.0000,0,0,0.0*
21,1,0.5886,0.2425,0,0,0.0*
1,1,0.2425,0.2943,0.0000*
1,1,0.2425,-0.2943,0.0000*
1,1,0.2425,-0.2943,0.0000*
1,1,0.2425,0.2943,0.0000*
%
%ADD29ROUNDEDRECTD29*%
G04:AMPARAMS|DCode=30|XSize=0.2425mm|YSize=0.8311mm|CornerRadius=0.1212mm|HoleSize=0mm|Usage=FLASHONLY|Rotation=0.000|XOffset=0mm|YOffset=0mm|HoleType=Round|Shape=RoundedRectangle|*
%AMROUNDEDRECTD30*
21,1,0.2425,0.5886,0,0,0.0*
21,1,0.0000,0.8311,0,0,0.0*
1,1,0.2425,0.0000,-0.2943*
1,1,0.2425,0.0000,-0.2943*
1,1,0.2425,0.0000,0.2943*
1,1,0.2425,0.0000,0.2943*
%
%ADD30ROUNDEDRECTD30*%
%ADD31R,0.8500X1.4500*%
%ADD32R,0.8500X1.0500*%
%ADD33R,1.0000X0.9000*%
%ADD34R,2.2860X1.8545*%
G04:AMPARAMS|DCode=35|XSize=0.9397mm|YSize=0.4858mm|CornerRadius=0.2429mm|HoleSize=0mm|Usage=FLASHONLY|Rotation=270.000|XOffset=0mm|YOffset=0mm|HoleType=Round|Shape=RoundedRectangle|*
%AMROUNDEDRECTD35*
21,1,0.9397,0.0000,0,0,270.0*
21,1,0.4539,0.4858,0,0,270.0*
1,1,0.4858,0.0000,-0.2269*
1,1,0.4858,0.0000,0.2269*
1,1,0.4858,0.0000,0.2269*
1,1,0.4858,0.0000,-0.2269*
%
%ADD35ROUNDEDRECTD35*%
%ADD36R,0.4858X0.9397*%
%ADD37R,1.2000X1.4000*%
%ADD38R,1.1500X1.0000*%
%ADD39R,0.8000X0.8000*%
%ADD40O,0.3000X2.1000*%
%ADD41O,2.1000X0.3000*%
%ADD42R,0.9500X0.9000*%
%ADD43R,0.8000X0.8000*%
G36*
X442140Y180010D02*
Y182010D01*
X450640D01*
Y184610D01*
X442140D01*
Y186610D01*
X463140D01*
Y180010D01*
X442140D01*
D01*
D02*
G37*
G36*
X486140Y186610D02*
Y184610D01*
X477640D01*
Y182010D01*
X486140D01*
Y180010D01*
X465140D01*
Y186610D01*
X486140D01*
D01*
D02*
G37*
G36*
X442140Y189210D02*
Y191210D01*
X450640D01*
Y193810D01*
X442140D01*
Y195810D01*
X463140D01*
Y189210D01*
X442140D01*
D01*
D02*
G37*
G36*
X486140Y195810D02*
Y193810D01*
X477640D01*
Y191210D01*
X486140D01*
Y189210D01*
X465140D01*
Y195810D01*
X486140D01*
D01*
D02*
G37*
G36*
X458550Y345080D02*
Y315280D01*
X434830D01*
Y345080D01*
X458550D01*
D02*
G37*
G36*
X576660Y315280D02*
X552940D01*
Y345080D01*
X576660D01*
Y315280D01*
D02*
G37*
G36*
X846680Y189210D02*
X825680D01*
Y191210D01*
X834180D01*
Y193810D01*
X825680D01*
Y195810D01*
X846680D01*
Y189210D01*
D02*
G37*
G36*
Y180010D02*
X825680D01*
Y182010D01*
X834180D01*
Y184610D01*
X825680D01*
Y186610D01*
X846680D01*
Y180010D01*
D02*
G37*
G36*
X869680Y195810D02*
Y193810D01*
X861180D01*
Y191210D01*
X869680D01*
Y189210D01*
X848680D01*
Y195810D01*
X869680D01*
D01*
D02*
G37*
G36*
Y186610D02*
Y184610D01*
X861180D01*
Y182010D01*
X869680D01*
Y180010D01*
X848680D01*
Y186610D01*
X869680D01*
D01*
D02*
G37*
D17*
X296060Y314048D02*
D03*
X296060Y585830D02*
D03*
D18*
X345500Y375000D02*
D03*
X329500D02*
D03*
X421000Y223000D02*
D03*
X437000D02*
D03*
Y238000D02*
D03*
X421000D02*
D03*
X436500Y156210D02*
D03*
X452500D02*
D03*
X244730Y322580D02*
D03*
X260730D02*
D03*
X260730Y353060D02*
D03*
X244730D02*
D03*
X244730Y337820D02*
D03*
X260730D02*
D03*
X244730Y624840D02*
D03*
X260730D02*
D03*
X260730Y609600D02*
D03*
X244730D02*
D03*
X260730Y594360D02*
D03*
X244730D02*
D03*
X327430Y341480D02*
D03*
X343430D02*
D03*
Y613260D02*
D03*
X327430D02*
D03*
X329500Y647500D02*
D03*
X345500D02*
D03*
X460000Y646000D02*
D03*
X444000D02*
D03*
X491000D02*
D03*
X475000D02*
D03*
X554000D02*
D03*
X538000D02*
D03*
X585000D02*
D03*
X569000D02*
D03*
X820040Y156210D02*
D03*
X836040D02*
D03*
X784000Y209000D02*
D03*
X800000D02*
D03*
Y224000D02*
D03*
X784000D02*
D03*
X660020Y660400D02*
D03*
X676020D02*
D03*
X701420Y718820D02*
D03*
X685420D02*
D03*
X818260Y657860D02*
D03*
X802260D02*
D03*
X818260Y622300D02*
D03*
X802260D02*
D03*
D19*
X504640Y270510D02*
D03*
X477640D02*
D03*
X595750D02*
D03*
X622750D02*
D03*
D20*
X449140Y201910D02*
D03*
X454140D02*
D03*
X459140D02*
D03*
X464140D02*
D03*
X469140D02*
D03*
X474140D02*
D03*
X479140D02*
D03*
Y173910D02*
D03*
X474140D02*
D03*
X469140D02*
D03*
X464140D02*
D03*
X459140D02*
D03*
X454140D02*
D03*
X449140D02*
D03*
X832680Y201910D02*
D03*
X837680D02*
D03*
X842680D02*
D03*
X847680D02*
D03*
X852680D02*
D03*
X857680D02*
D03*
X862680D02*
D03*
Y173910D02*
D03*
X857680D02*
D03*
X852680D02*
D03*
X847680D02*
D03*
X842680D02*
D03*
X837680D02*
D03*
X832680D02*
D03*
D21*
X252730Y253760D02*
D03*
Y223760D02*
D03*
Y274560D02*
D03*
Y304560D02*
D03*
X276860Y253760D02*
D03*
Y223760D02*
D03*
X252730Y525540D02*
D03*
Y495540D02*
D03*
Y576340D02*
D03*
Y546340D02*
D03*
X276860Y495540D02*
D03*
Y525540D02*
D03*
D22*
X260500Y185270D02*
D03*
Y457050D02*
D03*
X635000Y115570D02*
D03*
X702310D02*
D03*
D23*
X296180Y211940D02*
D03*
X313720D02*
D03*
Y483720D02*
D03*
X296180D02*
D03*
D24*
X310950Y190350D02*
D03*
X298950D02*
D03*
X341430Y299570D02*
D03*
X329430D02*
D03*
X341430Y316080D02*
D03*
X329430D02*
D03*
X466440Y123268D02*
D03*
X478440D02*
D03*
X466440Y139778D02*
D03*
X478440D02*
D03*
X466440Y156288D02*
D03*
X478440D02*
D03*
X466440Y219710D02*
D03*
X478440D02*
D03*
X466440Y236220D02*
D03*
X478440D02*
D03*
X298950Y462130D02*
D03*
X310950D02*
D03*
X341280Y358140D02*
D03*
X329280D02*
D03*
X329430Y571350D02*
D03*
X341430D02*
D03*
X481330Y346270D02*
D03*
X493330D02*
D03*
X611440D02*
D03*
X599440D02*
D03*
X329280Y629920D02*
D03*
X341280D02*
D03*
X341430Y587860D02*
D03*
X329430D02*
D03*
X458000Y628000D02*
D03*
X446000D02*
D03*
X552000Y627000D02*
D03*
X540000D02*
D03*
X680062Y477256D02*
D03*
X668062D02*
D03*
X849980Y156288D02*
D03*
X861980D02*
D03*
X849980Y123268D02*
D03*
X861980D02*
D03*
X849980Y139778D02*
D03*
X861980D02*
D03*
X758540Y495300D02*
D03*
X770540D02*
D03*
X758540Y477520D02*
D03*
X770540D02*
D03*
X849980Y219710D02*
D03*
X861980D02*
D03*
X849980Y236220D02*
D03*
X861980D02*
D03*
X602330Y541020D02*
D03*
X614330D02*
D03*
X674020Y640080D02*
D03*
X662020D02*
D03*
X816260D02*
D03*
X804260D02*
D03*
D25*
X340510Y234350D02*
D03*
Y273350D02*
D03*
Y545130D02*
D03*
Y506130D02*
D03*
D26*
X429260Y170530D02*
D03*
Y182530D02*
D03*
X650000Y495000D02*
D03*
Y483000D02*
D03*
X812800Y170530D02*
D03*
Y182530D02*
D03*
X609600Y560420D02*
D03*
Y572420D02*
D03*
Y588360D02*
D03*
Y600360D02*
D03*
X637540Y613760D02*
D03*
Y625760D02*
D03*
X767080Y611220D02*
D03*
Y623220D02*
D03*
X784860Y611220D02*
D03*
Y623220D02*
D03*
D27*
X270914Y316588D02*
D03*
X275232D02*
D03*
Y588368D02*
D03*
X270914D02*
D03*
D28*
X281655Y331548D02*
D03*
X281655Y603330D02*
D03*
D29*
X281655Y326548D02*
D03*
Y321548D02*
D03*
Y316548D02*
D03*
Y311548D02*
D03*
Y306548D02*
D03*
Y301548D02*
D03*
Y296548D02*
D03*
X310465D02*
D03*
Y301548D02*
D03*
Y306548D02*
D03*
Y311548D02*
D03*
Y316548D02*
D03*
Y321548D02*
D03*
Y326548D02*
D03*
Y331548D02*
D03*
X281655Y598330D02*
D03*
Y593330D02*
D03*
Y588330D02*
D03*
Y583330D02*
D03*
Y578330D02*
D03*
Y573330D02*
D03*
Y568330D02*
D03*
X310465D02*
D03*
Y573330D02*
D03*
Y578330D02*
D03*
Y583330D02*
D03*
Y588330D02*
D03*
Y593330D02*
D03*
Y598330D02*
D03*
Y603330D02*
D03*
D30*
X288560Y289643D02*
D03*
X293560D02*
D03*
X298560D02*
D03*
X303560D02*
D03*
Y338453D02*
D03*
X298560D02*
D03*
X293560D02*
D03*
X288560D02*
D03*
X288560Y561425D02*
D03*
X293560D02*
D03*
X298560D02*
D03*
X303560D02*
D03*
Y610235D02*
D03*
X298560D02*
D03*
X293560D02*
D03*
X288560D02*
D03*
D31*
X427640Y297180D02*
D03*
X440340D02*
D03*
X453040D02*
D03*
X465740D02*
D03*
X583850D02*
D03*
X571150D02*
D03*
X558450D02*
D03*
X545750D02*
D03*
D32*
X465740Y354180D02*
D03*
X453040D02*
D03*
X440340D02*
D03*
X427640D02*
D03*
X545750D02*
D03*
X558450D02*
D03*
X571150D02*
D03*
X583850D02*
D03*
D33*
X452120Y141350D02*
D03*
Y125350D02*
D03*
X313840Y367260D02*
D03*
Y351260D02*
D03*
X567690Y449200D02*
D03*
Y465200D02*
D03*
X584200Y449200D02*
D03*
Y465200D02*
D03*
X600710Y449200D02*
D03*
Y465200D02*
D03*
X313840Y623040D02*
D03*
Y639040D02*
D03*
X613410Y167260D02*
D03*
Y183260D02*
D03*
X617220Y465200D02*
D03*
Y449200D02*
D03*
X711200Y363600D02*
D03*
Y347600D02*
D03*
Y326770D02*
D03*
Y310770D02*
D03*
X726440Y183260D02*
D03*
Y167260D02*
D03*
X727710Y310770D02*
D03*
Y326770D02*
D03*
Y347600D02*
D03*
Y363600D02*
D03*
X835660Y141350D02*
D03*
Y125350D02*
D03*
D34*
X528320Y206803D02*
D03*
Y168958D02*
D03*
X911860Y206803D02*
D03*
Y168958D02*
D03*
D35*
X499370Y302095D02*
D03*
X489870D02*
D03*
X480370D02*
D03*
Y324405D02*
D03*
X489870D02*
D03*
X607980D02*
D03*
X598480D02*
D03*
Y302095D02*
D03*
X607980D02*
D03*
X617480D02*
D03*
D36*
X499370Y324405D02*
D03*
X617480D02*
D03*
D37*
X570620Y592660D02*
D03*
X587620D02*
D03*
Y570660D02*
D03*
X570620D02*
D03*
D38*
X595310Y521970D02*
D03*
X618810D02*
D03*
D39*
X613410Y129160D02*
D03*
Y145160D02*
D03*
X726440Y129160D02*
D03*
Y145160D02*
D03*
D40*
X666080Y614800D02*
D03*
X671080D02*
D03*
X676080D02*
D03*
X681080D02*
D03*
X686080D02*
D03*
X691080D02*
D03*
X696080D02*
D03*
X701080D02*
D03*
X706080D02*
D03*
X711080D02*
D03*
X716080D02*
D03*
X721080D02*
D03*
X726080D02*
D03*
X731080D02*
D03*
X736080D02*
D03*
X741080D02*
D03*
Y502800D02*
D03*
X736080D02*
D03*
X731080D02*
D03*
X726080D02*
D03*
X721080D02*
D03*
X716080D02*
D03*
X711080D02*
D03*
X706080D02*
D03*
X701080D02*
D03*
X696080D02*
D03*
X691080D02*
D03*
X686080D02*
D03*
X681080D02*
D03*
X676080D02*
D03*
X671080D02*
D03*
X666080D02*
D03*
D41*
X759580Y596300D02*
D03*
Y591300D02*
D03*
Y586300D02*
D03*
Y581300D02*
D03*
Y576300D02*
D03*
Y571300D02*
D03*
Y566300D02*
D03*
Y561300D02*
D03*
Y556300D02*
D03*
Y551300D02*
D03*
Y546300D02*
D03*
Y541300D02*
D03*
Y536300D02*
D03*
Y531300D02*
D03*
Y526300D02*
D03*
Y521300D02*
D03*
X647580D02*
D03*
Y526300D02*
D03*
Y531300D02*
D03*
Y536300D02*
D03*
Y541300D02*
D03*
Y546300D02*
D03*
Y551300D02*
D03*
Y556300D02*
D03*
Y561300D02*
D03*
Y566300D02*
D03*
Y571300D02*
D03*
Y576300D02*
D03*
Y581300D02*
D03*
Y586300D02*
D03*
Y591300D02*
D03*
Y596300D02*
D03*
D42*
X749500Y344830D02*
D03*
X774500Y354330D02*
D03*
X749500Y363830D02*
D03*
Y309270D02*
D03*
X774500Y318770D02*
D03*
X749500Y328270D02*
D03*
D43*
X701420Y734060D02*
D03*
X685420D02*
D03*
M02*
