G04*
G04 #@! TF.GenerationSoftware,Altium Limited,Altium Designer,24.1.2 (44)*
G04*
G04 Layer_Color=16711935*
%FSLAX44Y44*%
%MOMM*%
G71*
G04*
G04 #@! TF.SameCoordinates,2EF6C2FC-EFCF-4523-B91F-EB5A1425F999*
G04*
G04*
G04 #@! TF.FilePolarity,Negative*
G04*
G01*
G75*
%ADD44C,4.0000*%
%ADD60R,1.7032X1.7032*%
%ADD61C,1.7032*%
%ADD62R,2.7532X2.7532*%
%ADD63C,2.7532*%
%ADD64C,1.7112*%
%ADD65C,1.4000*%
%ADD66R,1.4000X1.4000*%
%ADD67R,1.5500X1.5500*%
%ADD68C,1.5500*%
%ADD69C,2.3000*%
%ADD70C,1.8032*%
G04:AMPARAMS|DCode=71|XSize=1.8032mm|YSize=1.8032mm|CornerRadius=0.5016mm|HoleSize=0mm|Usage=FLASHONLY|Rotation=270.000|XOffset=0mm|YOffset=0mm|HoleType=Round|Shape=RoundedRectangle|*
%AMROUNDEDRECTD71*
21,1,1.8032,0.8000,0,0,270.0*
21,1,0.8000,1.8032,0,0,270.0*
1,1,1.0032,-0.4000,-0.4000*
1,1,1.0032,-0.4000,0.4000*
1,1,1.0032,0.4000,0.4000*
1,1,1.0032,0.4000,-0.4000*
%
%ADD71ROUNDEDRECTD71*%
%ADD72C,0.3500*%
%ADD73C,5.0000*%
D44*
Y25000D02*
G03*
X25000Y0I25000J-0D01*
G01*
X25000Y120000D02*
G03*
X0Y95000I-0J-25000D01*
G01*
X45000Y120000D02*
G03*
X70000Y145000I0J25000D01*
G01*
X0Y685000D02*
G03*
X25000Y660000I25000J-0D01*
G01*
X25000Y780000D02*
G03*
X0Y755000I-0J-25000D01*
G01*
X70000Y635000D02*
G03*
X45000Y660000I-25000J0D01*
G01*
X955000Y0D02*
G03*
X980000Y25000I0J25000D01*
G01*
X980000Y755000D02*
G03*
X955000Y780000I-25000J0D01*
G01*
X0Y25000D02*
Y95000D01*
X25000Y120000D02*
X45000D01*
X25000Y0D02*
X955000D01*
X0Y685000D02*
Y755000D01*
X25000Y660000D02*
X45000D01*
X70000Y145000D02*
Y635000D01*
X25000Y780000D02*
X955000D01*
X980000Y755000D02*
X980000Y25000D01*
D60*
X881300Y62700D02*
D03*
D61*
Y37300D02*
D03*
X855900Y62700D02*
D03*
Y37300D02*
D03*
X830500Y62700D02*
D03*
Y37300D02*
D03*
X805100Y62700D02*
D03*
Y37300D02*
D03*
X779700Y62700D02*
D03*
Y37300D02*
D03*
X754300Y62700D02*
D03*
Y37300D02*
D03*
X728900Y62700D02*
D03*
Y37300D02*
D03*
X703500Y62700D02*
D03*
Y37300D02*
D03*
X678100Y62700D02*
D03*
Y37300D02*
D03*
X652700Y62700D02*
D03*
Y37300D02*
D03*
X627300Y62700D02*
D03*
Y37300D02*
D03*
X601900Y62700D02*
D03*
Y37300D02*
D03*
X576500Y62700D02*
D03*
Y37300D02*
D03*
X551100Y62700D02*
D03*
Y37300D02*
D03*
X525700Y62700D02*
D03*
Y37300D02*
D03*
X500300Y62700D02*
D03*
Y37300D02*
D03*
X398700Y62700D02*
D03*
X424100Y37300D02*
D03*
Y62700D02*
D03*
X449500Y37300D02*
D03*
Y62700D02*
D03*
X474900Y37300D02*
D03*
Y62700D02*
D03*
X398700Y88100D02*
D03*
X424100D02*
D03*
X449500D02*
D03*
X474900D02*
D03*
X398700Y37300D02*
D03*
D62*
X203200Y432930D02*
D03*
Y161150D02*
D03*
Y297176D02*
D03*
Y568960D02*
D03*
D63*
Y482930D02*
D03*
Y211150D02*
D03*
Y347176D02*
D03*
Y618960D02*
D03*
D64*
X103200Y512930D02*
D03*
Y402930D02*
D03*
Y131150D02*
D03*
Y241150D02*
D03*
Y267176D02*
D03*
Y377176D02*
D03*
Y538960D02*
D03*
Y648960D02*
D03*
D65*
X829100Y437230D02*
D03*
Y412230D02*
D03*
Y387230D02*
D03*
Y362230D02*
D03*
Y337230D02*
D03*
D66*
Y312230D02*
D03*
D67*
X596540Y714490D02*
D03*
X845460D02*
D03*
X497480D02*
D03*
D68*
X551540D02*
D03*
X800460D02*
D03*
X452480D02*
D03*
D69*
X609040Y689490D02*
D03*
X539040D02*
D03*
X857960D02*
D03*
X787960D02*
D03*
X509980D02*
D03*
X439980D02*
D03*
D70*
X845000Y523400D02*
D03*
Y548800D02*
D03*
X870400Y523400D02*
D03*
Y548800D02*
D03*
X845000Y574200D02*
D03*
X870400D02*
D03*
Y599600D02*
D03*
X845000D02*
D03*
X870400Y625000D02*
D03*
D71*
X845000D02*
D03*
D72*
X474140Y187910D02*
D03*
X469140D02*
D03*
X464140D02*
D03*
X459140D02*
D03*
X454140D02*
D03*
X474140Y182910D02*
D03*
X469140D02*
D03*
X464140D02*
D03*
X459140D02*
D03*
X454140D02*
D03*
X474140Y192910D02*
D03*
X469140D02*
D03*
X464140D02*
D03*
X459140D02*
D03*
X454140D02*
D03*
X857680Y187910D02*
D03*
X852680D02*
D03*
X847680D02*
D03*
X842680D02*
D03*
X837680D02*
D03*
X857680Y182910D02*
D03*
X852680D02*
D03*
X847680D02*
D03*
X842680D02*
D03*
X837680D02*
D03*
X857680Y192910D02*
D03*
X852680D02*
D03*
X847680D02*
D03*
X842680D02*
D03*
X837680D02*
D03*
D73*
X930000Y730000D02*
D03*
X50000Y50000D02*
D03*
Y730000D02*
D03*
X930000Y50000D02*
D03*
M02*
